<svg width="140" height="140" viewBox="0 0 140 140" fill="none" xmlns="http://www.w3.org/2000/svg">
<path fill-rule="evenodd" clip-rule="evenodd" d="M46.3103 80.3293L52.8624 86.7656V86.7887H110.488L114.076 80.3524H137.738V66.6695C138.641 66.0676 139.196 65.1183 139.335 64.007V63.9607V63.9144C139.335 62.8494 139.034 62.0391 138.386 61.3214L132.529 55.5797C131.88 54.7925 130.676 54.3758 129.797 54.3758C128.083 54.3989 126.972 55.4408 126.486 56.4363H110.372L103.797 50H0.422852V63.8913L6.07196 69.4709H8.34087V77.088L13.5038 82.1352H24.8252V80.3293H46.3103ZM113.66 79.6114H136.997V66.2526C137.9 65.7664 138.479 64.933 138.618 63.868C138.618 63.1039 138.432 62.4094 137.877 61.7843L131.996 56.0194C131.556 55.4406 130.561 55.047 129.82 55.047C127.551 55.0933 126.995 57.1307 126.995 57.1307H110.094L103.519 50.6944H1.14058V63.5901L6.37296 68.7531H9.08175V76.7637L13.828 81.4173H24.1306V79.6114H46.6113L53.1634 86.0477H110.071L113.66 79.6114Z" fill="white"/>
<path d="M4.45117 55.7183V58.4965H14.1982V74.5641H17.1154V58.4965H87.4052V55.7183H4.45117Z" fill="white"/>
<path d="M19.4536 62.1548V72.7584H30.4971L30.5203 69.9107H22.3244V68.6605H27.3947V66.1369H22.3244V64.9562H30.3119L30.3351 62.1548H19.4536Z" fill="white"/>
<path d="M46.4492 62.1548L46.4723 72.7584H49.32V68.6605H55.1312V72.7584H58.0021V62.1548H55.1312V66.1138H49.32V62.1548H46.4492Z" fill="white"/>
<path d="M60.1089 62.1548V72.7584H62.9798V65.234L69.0456 72.7584H72.9815V62.1548H70.0874V69.6561L64.0448 62.1548H60.1089Z" fill="white"/>
<path fill-rule="evenodd" clip-rule="evenodd" d="M78.3061 62.1548H84.1868C85.9695 62.1548 87.428 63.5671 87.428 65.3266V69.5866C87.428 71.3462 85.9695 72.7584 84.1868 72.7584H78.3061C76.5234 72.7584 75.0649 71.3462 75.0649 69.5866V65.3266C75.0649 63.5671 76.5234 62.1548 78.3061 62.1548ZM78.746 64.9562H83.7469C84.1868 64.9562 84.5572 65.3035 84.5572 65.7434V69.1236C84.5572 69.5635 84.1868 69.9107 83.7469 69.9107H78.746C78.3061 69.9107 77.9357 69.5635 77.9357 69.1236V65.7434C77.9357 65.3035 78.3061 64.9562 78.746 64.9562Z" fill="white"/>
<path d="M41.4943 68.7302V69.1006C41.4943 69.5405 41.1239 69.8878 40.684 69.8878H35.7063C35.2664 69.8878 34.896 69.5405 34.896 69.1006V65.7204C34.896 65.2805 35.2664 64.9332 35.7063 64.9332H40.7071C41.147 64.9332 41.5175 65.2805 41.5175 65.7204V66.0908H44.3883V65.3037C44.3883 63.5441 42.9297 62.1318 41.147 62.1318H35.2896C33.5068 62.1318 32.0483 63.5441 32.0483 65.3037V69.5637C32.0483 71.3232 33.5068 72.7355 35.2896 72.7355H41.1702C42.9529 72.7355 44.4115 71.3232 44.4115 69.5637V68.707L41.4943 68.7302Z" fill="white"/>
<path d="M102.361 58.4043V61.2289H93.2856C92.7994 61.2289 92.4058 61.6687 92.4058 62.2244V68.9154C92.4058 69.471 92.7762 69.9109 93.2856 69.9109H100.046V67.7809H97.2446V64.9564H102.94V72.7586H93.0772C91.1324 72.7586 89.5581 70.9991 89.5581 68.7996V62.3633C89.5581 60.187 91.1324 58.4043 93.0772 58.4043H102.361Z" fill="white"/>
<path d="M125.768 72.7584H123.245L120.003 66.2759V72.7584H117.156L117.132 62.1548H121.207L124.495 68.73L127.806 62.1548H131.857V72.7584H128.986L129.009 66.2759L125.768 72.7584Z" fill="white"/>
<path d="M106.274 79.2179H55.1309V76.3702H104.422L108.01 69.8876L103.727 62.1548H106.992L109.654 66.9704L112.317 62.1548H115.581L106.274 79.2179Z" fill="white"/>
<path d="M127.551 57.9873C127.551 56.7603 128.57 55.7646 129.82 55.7646C131.07 55.7646 132.089 56.7603 132.089 57.9873C132.089 59.2144 131.07 60.2099 129.82 60.2099C128.57 60.2099 127.551 59.2144 127.551 57.9873ZM127.852 57.9873C127.852 59.0292 128.732 59.8857 129.797 59.8857C130.885 59.8857 131.741 59.0292 131.741 57.9873C131.741 56.9223 130.862 56.0889 129.797 56.0657C128.732 56.0657 127.875 56.9223 127.852 57.9873Z" fill="white"/>
<path fill-rule="evenodd" clip-rule="evenodd" d="M130.005 58.3809C130.213 58.3809 130.306 58.5198 130.306 58.705V59.1217H130.746V58.705C130.746 58.3809 130.676 58.2188 130.352 58.1956C130.746 58.1262 130.769 57.8947 130.769 57.5474C130.769 57.038 130.584 56.876 130.075 56.876H128.894V59.1449H129.334V58.404H130.005V58.3809ZM129.334 58.0104V57.2233H129.959C130.283 57.2233 130.329 57.2927 130.329 57.5937C130.329 57.9178 130.237 57.9873 129.912 57.9873H129.334V58.0104Z" fill="white"/>
<path d="M130.005 58.3809C130.213 58.3809 130.306 58.5198 130.306 58.705V59.1217H130.746V58.705C130.746 58.3809 130.676 58.2188 130.352 58.1956C130.746 58.1262 130.769 57.8947 130.769 57.5474C130.769 57.038 130.584 56.876 130.075 56.876H128.894V59.1449H129.334V58.404H130.005V58.3809ZM129.334 58.0104V57.2233H129.959C130.283 57.2233 130.329 57.2927 130.329 57.5937C130.329 57.9178 130.237 57.9873 129.912 57.9873H129.334V58.0104Z" fill="white"/>
<path d="M84.164 62.1548H78.2833C76.5006 62.1548 75.042 63.5671 75.042 65.3266V69.5866C75.042 71.3462 76.5006 72.7584 78.2833 72.7584H84.164C85.9467 72.7584 87.4053 71.3462 87.4053 69.5866V65.3266C87.4053 63.5671 85.9698 62.1548 84.164 62.1548ZM84.5576 69.1236C84.5576 69.5635 84.1871 69.9107 83.7472 69.9107H78.7464C78.3065 69.9107 77.936 69.5635 77.936 69.1236V65.7434C77.936 65.3035 78.3065 64.9562 78.7464 64.9562H83.7472C84.1871 64.9562 84.5576 65.3035 84.5576 65.7434V69.1236Z" fill="white"/>
</svg>
