<svg width="140" height="140" viewBox="0 0 140 140" fill="none" xmlns="http://www.w3.org/2000/svg">
<path d="M48.7819 102.697L48.1025 98.6725C47.9088 97.5125 47.6611 95.6997 47.4723 94.444H47.3986C47.2001 95.7092 46.9228 97.5734 46.7192 98.6822L45.9882 102.697H48.7819ZM45.6232 105.319L44.7403 109.785H41.4785L45.5473 91.2046H49.5448L53.2408 109.785H49.962L49.0986 105.319H45.6232Z" fill="white"/>
<path d="M60.6645 101.485C60.6645 101.238 60.6645 100.948 60.6153 100.683C60.4855 99.7659 59.9974 98.9396 59.2125 98.9396C57.866 98.9396 57.3706 100.879 57.3706 103.148C57.3706 105.755 58.0768 107.239 59.1658 107.239C59.6637 107.239 60.2375 106.984 60.5492 105.89C60.6251 105.672 60.6645 105.38 60.6645 105.039V101.485ZM64.0122 90.7114V105.932C64.0122 107.138 64.0737 108.622 64.1228 109.782H61.2313L61.0426 108.235H60.9739C60.4883 109.189 59.4314 110 58.1681 110C55.3992 110 54.0259 106.945 54.0259 103.087C54.0259 98.3854 56.0736 96.0993 58.3055 96.0993C59.473 96.0993 60.2283 96.6709 60.6086 97.4977H60.665V90.7114H64.0122Z" fill="white"/>
<path d="M70.9849 107.433C72.2627 107.433 72.5791 105.025 72.5791 103.031C72.5791 101.135 72.2627 98.6647 70.9288 98.6647C69.5159 98.6647 69.2191 101.135 69.2191 103.031C69.2191 105.319 69.5918 107.433 70.9553 107.433H70.9849ZM70.9213 110.001C67.836 110.001 65.9009 107.524 65.9009 103.09C65.9009 98.2506 68.3853 96.0996 70.9997 96.0996C74.0434 96.0996 75.9514 98.6973 75.9514 103.011C75.9514 108.554 72.9619 110.001 70.9484 110.001H70.9213Z" fill="white"/>
<path d="M81.1705 104.975C81.1705 105.311 81.232 105.625 81.3032 105.836C81.6391 106.962 82.2082 107.239 82.6642 107.239C83.9592 107.239 84.4817 105.598 84.4817 102.974C84.4817 100.585 83.9296 98.9396 82.6494 98.9396C82.0144 98.9396 81.4796 99.6291 81.2956 100.37C81.2317 100.602 81.1705 100.965 81.1705 101.215V104.975ZM77.8225 90.7114H81.1702V97.7255H81.2241C81.8837 96.6904 82.7619 96.0993 84.0372 96.0993C86.5609 96.0993 87.8289 98.969 87.8289 102.721C87.8289 107.462 85.9379 110 83.4876 110C82.3201 110 81.5427 109.483 80.8413 108.171H80.7707L80.5844 109.782H77.71C77.7591 108.667 77.8225 107.138 77.8225 105.932V90.7114Z" fill="white"/>
<path d="M95.8515 101.768C95.8688 99.8769 95.3142 98.5519 94.2523 98.5519C93.0407 98.5519 92.5255 100.326 92.4889 101.768H95.8515ZM92.4766 104.135C92.516 106.57 93.7963 107.362 95.3854 107.362C96.3932 107.362 97.2566 107.139 97.8944 106.899L98.3456 109.307C97.4576 109.689 96.0866 109.93 94.7719 109.93C91.179 109.93 89.2168 107.475 89.2168 103.281C89.2168 98.7806 91.4929 96.0776 94.4653 96.0776C97.3373 96.0776 98.9289 98.4665 98.9289 102.366C98.9289 103.259 98.8921 103.762 98.8332 104.154L92.4766 104.135Z" fill="white"/>
<path d="M77.5161 30.0005H98.9318V81.2714L77.5161 30.0005Z" fill="white"/>
<path d="M62.428 30H41V81.2709L62.428 30Z" fill="white"/>
<path d="M60.6084 70.9556L69.9747 48.8921L83.6182 81.2683H74.6787L70.5974 70.9556H60.6084Z" fill="white"/>
</svg>
