<svg width="140" height="140" viewBox="0 0 140 140" fill="none" xmlns="http://www.w3.org/2000/svg">
<path d="M26.3544 90.209C23.0173 90.0754 20.287 89.1552 18.1522 87.446C17.7447 87.1195 16.7739 86.1406 16.4482 85.7277C15.5825 84.6307 14.9939 83.5631 14.6013 82.3785C13.3933 78.7322 14.015 73.9475 16.3796 68.6962C18.4042 64.2006 21.5282 59.7417 26.9784 53.5663C27.7813 52.6576 30.1721 50 30.1876 50C30.1933 50 30.063 50.2275 29.899 50.5045C28.4819 52.8965 27.2693 55.7142 26.6087 58.1535C25.5476 62.0676 25.6756 65.4266 26.9836 68.0311C27.8859 69.8255 29.4327 71.3797 31.1721 72.2389C34.2173 73.7425 38.6756 73.8668 44.1201 72.6028C44.495 72.5153 63.0698 67.5463 85.3978 61.5603C107.726 55.5737 125.997 50.6795 126 50.6835C126.006 50.6887 74.1258 73.0606 47.1938 84.667C42.9287 86.5045 41.7881 86.9687 39.783 87.6781C34.6573 89.492 30.0659 90.3576 26.3544 90.209Z" fill="white"/>
</svg>
