<svg width="140" height="140" viewBox="0 0 140 140" fill="none" xmlns="http://www.w3.org/2000/svg">
<path fill-rule="evenodd" clip-rule="evenodd" d="M128.236 87.3106V52.6895H92.1339V87.3106H128.236ZM120.009 62.6322C117.228 61.0341 114.446 60.2055 111.841 60.2055C109.061 60.2055 106.752 61.0932 104.977 62.8687C103.142 64.5851 102.196 66.7155 102.196 69.3787C102.196 71.9231 103.142 74.1126 104.918 75.8894C106.811 77.5453 109.061 78.3746 111.783 78.3746C114.683 78.3746 117.523 77.4868 120.305 75.7107V79.4398C117.7 80.8598 114.8 81.5701 111.605 81.5701C108.882 81.5701 106.633 81.0378 104.739 79.9727C102.926 78.8686 101.404 77.3463 100.301 75.5333C99.2353 73.5224 98.6432 71.5097 98.6432 69.3787C98.6432 65.8277 99.8858 62.9279 102.431 60.5603C104.917 58.1928 107.995 56.9502 111.605 56.9502C114.208 56.9502 116.99 57.6014 120.008 58.9623V62.6322H120.009ZM88.1103 52.6895H52.0088V87.3106H88.1103V52.6895ZM63.0758 57.8379H69.3492C71.3613 57.8379 72.9009 58.0745 74.0239 58.6074C75.1489 59.1994 75.9769 59.9092 76.5104 60.7975C77.1012 61.7444 77.3982 62.8096 77.3982 64.0522C77.3982 66.4191 76.2141 68.0764 73.7282 69.083C75.5037 69.3787 76.9238 70.0891 77.9304 71.2725C78.9359 72.3377 79.4102 73.6992 79.4688 75.2375C79.4102 76.4216 79.1139 77.5453 78.5225 78.4929C77.8707 79.4397 76.9829 80.2098 75.7403 80.8604C74.4977 81.4524 73.0179 81.7482 71.1833 81.7482H63.0758V57.8379Z" fill="white"/>
<path fill-rule="evenodd" clip-rule="evenodd" d="M68.7573 68.077C70.5913 68.077 71.8937 67.7221 72.6631 67.071C73.4326 66.3015 73.846 65.4137 73.846 64.2894C73.846 62.0408 72.3674 60.8567 69.467 60.8567H66.5086V68.077H68.7573ZM69.7042 71.1543H66.5086V78.6697H69.9414C71.5388 78.6697 72.8412 78.552 73.6692 78.3148C74.4387 77.9002 74.9715 77.4271 75.3264 76.8948C75.6813 76.3027 75.9184 75.6522 75.9184 74.9418C75.8587 74.2315 75.6813 73.5797 75.2666 72.9889C74.9118 72.3371 74.3204 71.864 73.4911 71.5676C72.7229 71.2725 71.4205 71.0951 69.7042 71.1543ZM47.8658 52.6895H11.7642V87.3106H47.8658V52.6895ZM22.7727 81.7475V57.8379H29.0461C31.0582 57.8379 32.538 58.0745 33.6623 58.6074C34.7867 59.1397 35.6744 59.9092 36.2073 60.8561C36.7987 61.7438 37.0951 62.809 37.1542 64.0516C37.0951 66.4185 35.9116 68.0757 33.4258 69.1409C35.2604 69.4373 36.6213 70.147 37.628 71.2713C38.634 72.3365 39.1669 73.698 39.1669 75.2363C39.1669 76.4789 38.8712 77.6039 38.22 78.4916C37.5688 79.497 36.6811 80.2671 35.4976 80.8592C34.255 81.4512 32.7161 81.7469 30.8814 81.7469H22.7727V81.7475Z" fill="white"/>
<path fill-rule="evenodd" clip-rule="evenodd" d="M29.1645 60.8564H26.2056V68.0768H28.5134C30.2889 68.0768 31.5906 67.7219 32.3607 67.0708C33.1296 66.3604 33.5442 65.4135 33.5442 64.3483C33.5435 62.0399 32.0644 60.8564 29.1645 60.8564ZM29.4011 71.1541H26.2056V78.6695H29.5785C31.354 78.6695 32.6558 78.5519 33.4253 78.3147C34.0764 78.019 34.6087 77.6043 35.0227 77.0123C35.3782 76.3617 35.5556 75.7099 35.6148 74.9417C35.5556 74.1124 35.3184 73.4619 34.9636 72.9887C34.5575 72.3335 33.9261 71.8491 33.1881 71.6266C32.3601 71.2724 31.0583 71.1541 29.4011 71.1541Z" fill="white"/>
</svg>
