<svg width="141" height="140" viewBox="0 0 141 140" fill="none" xmlns="http://www.w3.org/2000/svg">
<path d="M18.4151 63.1777H5.424C3.9637 63.1777 2.61717 63.7657 1.59306 64.7898C0.60688 65.7949 0.075857 67.1225 0.0948129 68.5278C0.075857 69.9824 0.606879 71.3555 1.61203 72.3644C2.57924 73.3335 3.88782 73.8589 5.27228 73.8475C5.25331 73.8475 13.3135 73.8475 13.3135 73.8475C15.0393 73.8608 16.3289 75.084 16.3479 76.7567C16.3289 78.3706 14.9445 79.7494 13.2945 79.7703C13.3135 79.7703 0 79.7703 0 79.7703V82.5562H13.3135C16.4617 82.5145 19.0788 79.9125 19.1357 76.7567C19.0788 73.5118 16.5755 71.0881 13.3135 71.0615H5.25331C4.6085 71.0672 4.02058 70.832 3.58438 70.3977C3.11027 69.9236 2.86371 69.2598 2.86371 68.5278C2.86371 67.8393 3.11027 67.2173 3.58438 66.7432C4.07748 66.2501 4.7223 65.9656 5.44297 65.9656C5.424 65.9656 18.4151 65.9656 18.4151 65.9656V63.1777Z" fill="white"/>
<path d="M42.1596 63.0825V76.2329C42.1596 77.238 41.7613 78.1768 41.0596 78.8747C40.3579 79.5669 39.4476 79.9425 38.4614 79.9349C36.4511 79.95 34.8012 78.2773 34.7442 76.2025C34.7442 76.2329 34.7442 63.0825 34.7442 63.0825H31.9754V76.2329C31.9754 76.2443 31.9754 76.2537 31.9754 76.2632C31.9943 77.2418 31.634 78.1597 30.9512 78.8482C30.2495 79.5575 29.3013 79.9425 28.2772 79.9349C27.3289 79.9425 26.4565 79.5764 25.7928 78.9051C25.0911 78.2033 24.7117 77.2608 24.7307 76.2537C24.7307 76.2329 24.7307 63.0825 24.7307 63.0825H21.9428V76.2329C21.9239 77.9758 22.5877 79.6295 23.8014 80.8679C25.0152 82.076 26.5893 82.7322 28.2772 82.7189C30.0409 82.7341 31.6909 82.0533 32.9236 80.8035C33.0943 80.629 33.265 80.4431 33.4167 80.2516C34.6115 81.7688 36.4321 82.736 38.4614 82.7189C40.1683 82.7322 41.7992 82.0703 43.032 80.8509C44.2647 79.6257 44.9475 77.9853 44.9285 76.2329V63.0825H42.1596Z" fill="white"/>
<path d="M63.7602 63.0068H57.6724C52.1915 62.931 47.6589 67.3081 47.583 72.7624C47.6589 78.3856 52.1915 82.9088 57.6724 82.8841C58.8293 82.905 59.9293 82.702 60.9723 82.3151V79.4419H60.6499L60.3844 79.5671C59.55 79.9426 58.6776 80.1171 57.7103 80.1C53.6898 80.1171 50.4088 76.8267 50.3519 72.7643C50.4088 68.8177 53.6139 65.7378 57.6535 65.7947C57.6724 65.7947 60.5741 65.7947 62.3568 65.7947V82.4782H65.1446V63.0068H63.7602Z" fill="white"/>
<path d="M75.2529 79.935C74.3236 79.9255 73.4512 79.55 72.7875 78.8767C72.1806 78.249 71.8582 77.4392 71.8771 76.5952C71.8771 76.5763 71.8771 70.8792 71.8771 65.7946H78.5339V63.0068H71.8771C71.8771 60.162 71.8771 58 71.8771 58H69.1081V76.5611C69.0513 78.1219 69.6582 79.6429 70.7961 80.8112C71.953 82.0249 73.5461 82.702 75.2529 82.719H79.1975V79.935H75.2529Z" fill="white"/>
<path d="M95.5082 75.8292C94.3514 78.4407 91.7532 80.1172 88.9084 80.1002C86.9171 80.1078 85.0775 79.3492 83.693 77.9647C82.3086 76.5841 81.5689 74.7482 81.5879 72.7929C81.55 68.8046 84.8499 65.5293 88.9084 65.4724C91.2601 65.5293 93.3652 66.6293 94.6548 68.4841L96.9496 66.8948C95.1479 64.2966 92.2273 62.7604 88.9274 62.6846C83.2758 62.7604 78.7621 67.3007 78.8001 72.7929C78.7811 75.4784 79.8052 78.0197 81.7207 79.9314C83.6361 81.8469 86.1775 82.8956 88.9084 82.8842C92.8342 82.9089 96.4375 80.5857 98.0496 76.9653L95.5082 75.8292Z" fill="white"/>
<path d="M108.423 62.6844C106.356 62.6464 104.346 63.405 102.772 64.8274V58H99.9834V82.4782H102.772V71.12C102.753 69.5971 103.341 68.1653 104.422 67.0843C105.503 66.0222 106.925 65.4343 108.423 65.4722C111.628 65.4153 114.226 67.9699 114.283 71.1636C114.283 71.139 114.283 82.4782 114.283 82.4782H117.071V71.139C116.995 66.3826 113.108 62.6085 108.423 62.6844Z" fill="white"/>
<path fill-rule="evenodd" clip-rule="evenodd" d="M140 63.5757H121.111V82.4781H140V63.5757ZM132.926 70.6458H138.691V75.4117H132.926V81.3269H128.166V75.4117H122.249V70.6458H128.166V64.9032H132.926V70.6458Z" fill="white"/>
<path d="M121.111 63.5757V63.4077H120.943V63.5757H121.111ZM140 63.5757H140.168V63.4077H140V63.5757ZM121.111 82.4781H120.943V82.6461H121.111V82.4781ZM140 82.4781V82.6461H140.168V82.4781H140ZM138.691 70.6458H138.859V70.4778H138.691V70.6458ZM132.926 70.6458H132.758V70.8137H132.926V70.6458ZM138.691 75.4117V75.5797H138.859V75.4117H138.691ZM132.926 75.4117V75.2437H132.758V75.4117H132.926ZM132.926 81.3269V81.4949H133.094V81.3269H132.926ZM128.166 81.3269H127.998V81.4949H128.166V81.3269ZM128.166 75.4117H128.334V75.2437H128.166V75.4117ZM122.249 75.4117H122.081V75.5797H122.249V75.4117ZM122.249 70.6458V70.4778H122.081V70.6458H122.249ZM128.166 70.6458V70.8137H128.334V70.6458H128.166ZM128.166 64.9032V64.7352H127.998V64.9032H128.166ZM132.926 64.9032H133.094V64.7352H132.926V64.9032ZM121.111 63.7436H140V63.4077H121.111V63.7436ZM121.279 82.4781V63.5757H120.943V82.4781H121.279ZM140 82.3102H121.111V82.6461H140V82.3102ZM139.832 63.5757V82.4781H140.168V63.5757H139.832ZM138.691 70.4778H132.926V70.8137H138.691V70.4778ZM138.859 75.4117V70.6458H138.523V75.4117H138.859ZM132.926 75.5797H138.691V75.2437H132.926V75.5797ZM133.094 81.3269V75.4117H132.758V81.3269H133.094ZM128.166 81.4949H132.926V81.1589H128.166V81.4949ZM127.998 75.4117V81.3269H128.334V75.4117H127.998ZM122.249 75.5797H128.166V75.2437H122.249V75.5797ZM122.081 70.6458V75.4117H122.417V70.6458H122.081ZM128.166 70.4778H122.249V70.8137H128.166V70.4778ZM127.998 64.9032V70.6458H128.334V64.9032H127.998ZM132.926 64.7352H128.166V65.0711H132.926V64.7352ZM133.094 70.6458V64.9032H132.758V70.6458H133.094Z" fill="white"/>
</svg>
