<svg width="140" height="140" viewBox="0 0 140 140" fill="none" xmlns="http://www.w3.org/2000/svg">
<path d="M10.0596 77.8014V52.5933H14.4877V77.8014H10.0596Z" fill="white"/>
<path d="M25.8231 59.5137C20.1457 59.5137 16.2168 63.8789 16.2168 68.8753C16.2168 74.4516 20.491 78.2931 25.8672 78.2931C30.9696 78.2931 35.3973 74.5223 35.3973 68.8632C35.3973 64.1045 31.7283 59.5137 25.8231 59.5137ZM25.771 63.7854C28.7421 63.7854 30.9291 66.0981 30.9291 68.8913C30.9291 71.8529 28.5179 74.0133 25.8512 74.0133C22.7002 74.0133 20.7171 71.5159 20.7171 68.8993C20.7171 66.0313 22.956 63.7854 25.771 63.7854Z" fill="white"/>
<path d="M46.5223 59.5137C40.8448 59.5137 36.916 63.8789 36.916 68.8753C36.916 74.4516 41.1901 78.2931 46.5664 78.2931C51.6688 78.2931 56.0965 74.5223 56.0965 68.8632C56.0965 65.5308 54.6533 64.0522 54.6533 64.0522L55.8807 63.6313V60.0375H49.5915C49.5915 60.0375 48.228 59.5137 46.5223 59.5137ZM46.4701 63.7854C49.4413 63.7854 51.6282 66.0981 51.6282 68.8913C51.6282 71.8529 49.2171 74.0133 46.5504 74.0133C43.3993 74.0133 41.4163 71.5159 41.4163 68.8993C41.4163 66.0313 43.6552 63.7854 46.4701 63.7854Z" fill="white"/>
<path d="M51.5971 79.0337C51.5971 81.9953 49.1859 84.1717 46.5192 84.1717C43.3681 84.1717 41.3771 81.6502 41.3771 79.0337H36.8848C36.8848 84.61 41.159 88.4515 46.5352 88.4515C51.6376 88.4515 56.0653 84.6927 56.0653 79.0337H51.5971Z" fill="white"/>
<path d="M57.8701 77.8014V60.0376H62.2982V77.8014H57.8701Z" fill="white"/>
<path d="M66.5981 77.8012V64.0163H64.2236V60.0374H66.5981V54.5825H71.0262V60.0374H73.4649V64.0163H71.0262V77.8012H66.5981Z" fill="white"/>
<path d="M63.0072 54.9923C63.0072 56.6118 61.6944 57.9246 60.0749 57.9246C58.4555 57.9246 57.1426 56.6118 57.1426 54.9923C57.1426 53.3729 58.4555 52.0601 60.0749 52.0601C61.6944 52.0601 63.0072 53.3729 63.0072 54.9923Z" fill="white"/>
<path d="M83.4198 59.502C77.7155 59.502 74.0381 63.8694 74.0381 69.036C74.0381 74.3752 77.7277 78.3054 83.5121 78.3054C88.9079 78.3054 91.5621 74.9362 91.5621 74.9362L88.602 71.9721C88.602 71.9721 86.367 74.3827 83.5682 74.3827C81.2351 74.3827 79.3698 73.0805 78.7189 70.6926H92.5167V69.4732C92.5167 64.6079 89.7006 59.502 83.4198 59.502ZM83.2794 63.4006C85.3193 63.4006 87.4054 64.4919 87.872 67.0987H78.5986C78.9659 65.2663 80.5689 63.4006 83.2794 63.4006Z" fill="white"/>
<path d="M103.593 78.3076C97.8724 78.3076 93.9746 73.9507 93.9746 68.8137C93.9746 63.5122 98.3798 59.4985 103.574 59.4985C108.596 59.4985 111.166 63.0436 111.166 63.0436L108.078 66.1186C108.078 66.1186 106.288 63.8067 103.553 63.8067C100.522 63.8067 98.4497 66.1254 98.4497 68.8816C98.4497 71.7919 100.654 74.0248 103.519 74.0248C106.298 74.0248 108.073 71.7166 108.073 71.7166L111.193 74.7899C111.193 74.7899 108.648 78.3076 103.593 78.3076Z" fill="white"/>
<path d="M112.805 77.8145V52.5293H117.233V61.8192C117.233 61.8192 118.929 59.4987 122.617 59.4987C127.254 59.4987 129.94 62.9455 129.94 67.3539V77.8145H125.512V68.0231C125.512 65.0615 123.668 63.8328 121.625 63.8328C119.298 63.8328 117.233 65.1572 117.233 68.2523V77.8145H112.805Z" fill="white"/>
</svg>
