<svg width="140" height="140" viewBox="0 0 140 140" fill="none" xmlns="http://www.w3.org/2000/svg">
<path d="M82.5018 69.9884C82.5018 75.9363 87.2482 80.7582 93.1042 80.7582C98.9592 80.7582 103.706 75.9363 103.706 69.9884C103.706 64.0396 98.9592 59.2178 93.1042 59.2178C87.2482 59.2178 82.5018 64.0396 82.5018 69.9884ZM86.1825 69.9884C86.1825 66.1051 89.2815 62.9578 93.1042 62.9578C96.9266 62.9578 100.026 66.1051 100.026 69.9884C100.026 73.8717 96.9266 77.0197 93.1042 77.0197C89.2815 77.0197 86.1825 73.8717 86.1825 69.9884ZM35.8076 69.9884C35.8076 75.9363 40.554 80.7582 46.41 80.7582C52.265 80.7582 57.0114 75.9363 57.0114 69.9884C57.0114 64.0396 52.265 59.2178 46.41 59.2178C40.554 59.2178 35.8076 64.0396 35.8076 69.9884ZM39.4883 69.9884C39.4883 66.1051 42.5873 62.9578 46.41 62.9578C50.2324 62.9578 53.3314 66.1051 53.3314 69.9884C53.3314 73.8717 50.2324 77.0197 46.41 77.0197C42.5873 77.0197 39.4883 73.8717 39.4883 69.9884ZM73.8522 59.4429V72.5437L64.9151 59.4429H61.9803V80.4358H65.6618V67.2711L74.6418 80.4358H77.533V59.4429H73.8522ZM108.675 59.506V80.499H112.356V71.1566L120.024 80.499H124.807L118.526 72.8459C121.24 71.9666 123.205 69.3856 123.205 66.3372C123.205 62.5716 120.204 59.5168 116.5 59.5068V59.506H108.675ZM112.356 63.246H116.455C118.134 63.246 119.497 64.63 119.497 66.3372C119.497 68.0444 118.134 69.4292 116.453 69.4292H112.356V63.246ZM27.1579 59.506V68.0156H18.9675V59.506H15.2861V80.499H18.9675V71.7549H27.1579V80.499H30.8386V59.506H27.1579Z" fill="white"/>
</svg>
