<svg width="140" height="140" viewBox="0 0 140 140" fill="none" xmlns="http://www.w3.org/2000/svg">
<path d="M91.2993 72.4206C91.4115 84.504 101.9 88.5251 102.016 88.5764C101.927 88.86 100.34 94.3069 96.4902 99.9331C93.1622 104.797 89.7081 109.644 84.267 109.744C78.9205 109.842 77.2013 106.573 71.0888 106.573C64.9781 106.573 63.068 109.644 58.007 109.842C52.7549 110.041 48.7555 104.582 45.3999 99.7362C38.5429 89.8229 33.3028 71.7235 40.339 59.5061C43.8344 53.439 50.0809 49.597 56.861 49.4984C62.0184 49.4001 66.8864 52.9682 70.0392 52.9682C73.19 52.9682 79.1056 48.6772 85.3245 49.3074C87.9279 49.4157 95.2358 50.359 99.9284 57.2278C99.5503 57.4622 91.2086 62.3183 91.2993 72.4206ZM81.2512 42.7489C84.0396 39.3737 85.9163 34.6751 85.4043 30C81.3851 30.1615 76.525 32.6783 73.6421 36.0516C71.0584 39.0389 68.7958 43.8202 69.4063 48.4027C73.8862 48.7493 78.4627 46.1262 81.2512 42.7489Z" fill="white"/>
</svg>
