<svg width="140" height="140" viewBox="0 0 140 140" fill="none" xmlns="http://www.w3.org/2000/svg">
<path d="M54.5757 96.7224V104.313C54.5757 106.472 53.5014 107.612 51.5541 107.612C49.5934 107.612 48.519 106.432 48.519 104.219V96.7358H45.8331V104.313C45.8331 108.041 47.9013 110.173 51.5272 110.173C55.1801 110.173 57.2751 108.001 57.2751 104.192V96.709L54.5757 96.7224ZM64.4733 96.7224L58.6314 109.972H61.3845L62.5126 107.41L62.5932 107.223H68.6633L69.8585 109.985H72.6787L66.8906 96.8163L66.8369 96.7358L64.4733 96.7224ZM80.4813 96.7224L77.4731 105.841L74.5454 96.7358H71.6715L76.2913 109.985H78.5206L81.5422 101.282L84.5638 109.985H86.8066L91.4129 96.7358H88.6196L85.6785 105.841L82.6703 96.7224H80.4813ZM106.83 96.7224V109.958H109.489V96.7224H106.83ZM30.6309 96.7224V109.972H33.3168V104.594H39.4004V109.972H42.0997V96.7224H39.4004V102.073H33.3168V96.7224H30.6309ZM93.5885 96.7358V109.972H103.607V107.558H96.2475V104.272H101.15V101.859H96.2475V99.1497H103.365V96.7358H93.5885ZM65.6148 100.075L67.5352 104.514H67.5218L67.6561 104.822H63.5869L63.7212 104.514L65.6148 100.075Z" fill="white"/>
<path d="M64.164 29C63.0896 29.0939 60.2157 29.751 60.2157 29.751C53.7158 31.4273 52.1714 37.3279 52.1714 37.3279C51.8491 38.3202 51.7148 39.3394 51.6611 40.2916V41.5924C51.7417 43.6039 52.1983 45.1059 52.1983 45.1059C54.3739 54.7346 65.0503 70.5454 67.3468 73.8578C67.5079 74.0187 67.6422 73.9651 67.6422 73.9651C67.884 73.898 67.8705 73.6566 67.8705 73.6566C71.4159 38.3605 64.164 29 64.164 29ZM75.8477 29C75.8477 29 68.5689 38.3605 72.1008 73.6835C72.1277 73.9114 72.2889 73.9517 72.2889 73.9517C72.5306 74.0456 72.6514 73.8176 72.6514 73.8176C75.0016 70.4113 85.6244 54.6943 87.7865 45.1059C87.7865 45.1059 88.9549 40.4659 87.8268 37.3279C87.8268 37.3279 86.2153 31.3468 79.7019 29.7644C79.7154 29.7644 77.8487 29.2816 75.8477 29ZM42.2739 39.6076C42.2739 39.6076 36.0694 45.4814 35.774 51.7038V52.6425C35.774 52.7096 35.7874 52.7901 35.7874 52.8571C36.056 57.8726 39.8431 60.8497 39.8431 60.8497C45.9267 66.7905 60.6857 74.2735 64.1103 75.9767C64.164 75.9901 64.3386 76.0571 64.446 75.923C64.446 75.923 64.4997 75.8828 64.5266 75.8023V75.6414C64.5266 75.628 64.5132 75.628 64.5132 75.6146C55.1259 55.1369 42.2739 39.5942 42.2739 39.6076ZM97.7244 39.6076C97.7244 39.6076 84.9126 55.0966 75.5254 75.5475C75.5254 75.5475 75.4179 75.7889 75.5925 75.9364C75.5925 75.9364 75.6462 75.9767 75.7134 75.9901H75.8477C75.8745 75.9767 75.9014 75.9766 75.9148 75.9632C79.4334 74.2199 94.085 66.7771 100.155 60.8765C100.155 60.8765 103.996 57.7921 104.198 52.8437C104.654 45.9642 97.7244 39.5942 97.7244 39.6076ZM109.261 59.9378C109.261 59.9378 88.3774 71.1355 77.5801 78.4039C77.5801 78.4039 77.3786 78.538 77.4592 78.766C77.4592 78.766 77.5667 78.9538 77.7144 78.9538C81.5821 78.9672 96.2203 78.9806 96.5829 78.9135C96.5829 78.9135 98.4764 78.8331 100.813 77.9346C100.813 77.9346 106.024 76.2851 108.723 70.3845C108.723 70.3845 109.959 67.917 109.972 64.4437V64.2962C109.959 62.9686 109.771 61.48 109.261 59.9378ZM30.7379 59.9914C28.8309 65.8652 31.396 70.5991 31.396 70.6125C34.0684 76.2314 39.1448 77.948 39.1448 77.948C41.495 78.9135 43.8451 78.9806 43.8451 78.9806C44.2077 79.0476 58.4564 78.994 62.2704 78.9672C62.4316 78.9672 62.5256 78.8062 62.5256 78.8062C62.539 78.7928 62.5525 78.766 62.5525 78.7526V78.6051C62.5256 78.5112 62.4316 78.4308 62.4316 78.4308C51.6477 71.1623 30.7379 59.9914 30.7379 59.9914ZM61.8407 80.7642L37.2647 81.6224C39.9237 86.3697 44.4226 90.0576 49.0961 88.9177C52.3192 88.1131 59.6248 83.0171 62.0421 81.3006L62.0287 81.2872C62.2167 81.1128 62.1496 80.9787 62.1496 80.9787C62.0958 80.7776 61.8407 80.7776 61.8407 80.7642ZM78.1173 80.7776C78.1173 80.791 77.9024 80.8178 77.8352 80.9787C77.8352 80.9787 77.7815 81.1933 77.9293 81.314C80.2794 83.0037 87.4105 87.979 90.8484 88.9445C90.8484 88.9445 91.3722 89.1188 92.2451 89.1591H92.7689C95.0653 89.0786 99.0807 87.8985 102.72 81.6493L78.1173 80.7776Z" fill="white"/>
</svg>
