<svg width="140" height="140" viewBox="0 0 140 140" fill="none" xmlns="http://www.w3.org/2000/svg">
<path fill-rule="evenodd" clip-rule="evenodd" d="M0 56H140V84.6308H0V56ZM61.7804 61.3334V69.2558L61.7784 69.2578V76.8604C61.7667 77.2847 61.8328 77.7075 61.9733 78.108C62.0996 78.4653 62.3482 78.7664 62.6751 78.958C63.068 79.1792 63.5128 79.2916 63.9637 79.2835H69.4746H70.9932C71.1199 79.2835 71.1608 79.2348 71.1608 79.112V78.5271V75.2678C71.1608 75.0845 71.1316 75.0533 70.9776 75.0533H67.7962C67.6352 75.0534 67.4744 75.0436 67.3147 75.0241C67.1275 74.9978 66.9537 74.9122 66.8186 74.78C66.6836 74.6478 66.5944 74.4757 66.5642 74.2892C66.5384 74.1162 66.5254 73.9416 66.5252 73.7667V61.3315C66.5252 61.1346 66.4959 61.0956 66.301 61.0956H62.0123C61.8076 61.0956 61.7804 61.1268 61.7804 61.3334ZM99.6552 70.2074V61.3318C99.6552 61.1369 99.6884 61.0979 99.8931 61.0979H104.252C104.447 61.0979 104.476 61.1349 104.476 61.3182V69.7376C104.473 69.7551 104.473 69.7728 104.476 69.7903C104.49 69.8273 104.505 69.8643 104.521 69.9014C104.56 69.8876 104.597 69.8672 104.63 69.841C104.695 69.7628 104.758 69.682 104.821 69.6009C104.868 69.5405 104.915 69.4798 104.963 69.4199C105.201 69.1236 105.44 68.828 105.678 68.5324C106.036 68.0888 106.393 67.6452 106.749 67.1995C106.786 67.1489 106.835 67.1084 106.891 67.0819C106.948 67.0553 107.01 67.0434 107.073 67.0475H111.656C111.725 67.0436 111.795 67.0436 111.864 67.0475C111.899 67.0475 111.948 67.0709 111.958 67.0962C111.96 67.1148 111.958 67.1336 111.953 67.1515C111.947 67.1693 111.937 67.1857 111.925 67.1995C111.776 67.3818 111.626 67.563 111.475 67.7443V67.7444V67.7447C111.325 67.9259 111.175 68.1071 111.026 68.2892C110.124 69.3913 109.224 70.4934 108.326 71.5954L108.238 71.7032V71.7037C108.049 71.9346 107.861 72.1649 107.667 72.3908C107.649 72.4059 107.634 72.425 107.624 72.4466C107.614 72.4681 107.608 72.4917 107.608 72.5155C107.608 72.5394 107.614 72.5629 107.624 72.5845C107.634 72.6061 107.649 72.6251 107.667 72.6403C108.317 73.4084 108.96 74.1777 109.595 74.9484C110.385 75.8984 111.174 76.8471 111.962 77.7945C112.183 78.0608 112.405 78.3256 112.627 78.5904L112.629 78.5925C112.782 78.7748 112.934 78.957 113.087 79.1396C113.107 79.1742 113.122 79.2116 113.131 79.2507C113.095 79.2691 113.055 79.2816 113.014 79.2877H107.79C107.745 79.2893 107.7 79.2798 107.659 79.2601C107.618 79.2404 107.583 79.2111 107.556 79.1747C106.765 78.2117 105.971 77.25 105.174 76.2896C105.142 76.2502 105.109 76.2107 105.077 76.1712L105.032 76.1162L105.031 76.1151L105.029 76.1131C104.906 75.9627 104.783 75.8123 104.657 75.6638C104.618 75.6273 104.573 75.5965 104.525 75.5722C104.503 75.6192 104.488 75.6691 104.48 75.7203V79.1123C104.48 79.2605 104.453 79.2858 104.275 79.2858H99.9106C99.6591 79.2858 99.6552 79.2858 99.6552 79.0304V70.2074ZM78.3093 79.5021C77.6997 79.5154 77.0918 79.4325 76.5081 79.2565C75.9095 79.0841 75.3408 78.8211 74.8218 78.4767C74.1995 78.0642 73.6406 77.5631 73.1629 76.9893C72.7721 76.5253 72.4516 76.0064 72.2116 75.4493C71.7742 74.3932 71.6048 73.2454 71.7184 72.108C71.7655 71.5329 71.8908 70.9669 72.0907 70.4257C72.424 69.5192 72.9509 68.6963 73.6347 68.0143C74.1932 67.4456 74.8504 66.9832 75.5743 66.6497C75.9357 66.4886 76.3117 66.3626 76.6972 66.2735C77.4446 66.094 78.216 66.0361 78.9818 66.1019C79.4682 66.1432 79.949 66.2347 80.4166 66.3748C80.8942 66.5194 81.3525 66.7217 81.7812 66.9772C82.3696 67.3377 82.9017 67.7831 83.3602 68.2989C83.7835 68.7529 84.1369 69.2673 84.409 69.8253C84.6269 70.2764 84.7917 70.7514 84.9002 71.2405C85.0848 72.1178 85.1093 73.0213 84.9723 73.9073C84.8908 74.4776 84.7253 75.0327 84.4811 75.5545C83.8729 76.8101 82.9159 77.8638 81.7246 78.5898C81.1969 78.9227 80.617 79.1645 80.0092 79.3052C79.4529 79.4445 78.8807 79.5101 78.3074 79.5001L78.3093 79.5021ZM78.5023 70.8136C78.1185 70.8026 77.7388 70.8948 77.4028 71.0807C77.1621 71.2193 76.9548 71.4092 76.7958 71.6369C76.6368 71.8647 76.5299 72.1247 76.4827 72.3985C76.4036 72.8121 76.4359 73.2393 76.5763 73.6363C76.6495 73.8707 76.7835 74.0814 76.9647 74.2471C77.1458 74.4129 77.3676 74.5277 77.6075 74.5798C78.0622 74.6955 78.5377 74.7022 78.9955 74.5993C79.271 74.5571 79.5282 74.4356 79.7359 74.2498C79.9436 74.0639 80.0927 73.8216 80.1651 73.5525C80.3546 72.9552 80.3263 72.3101 80.0852 71.7318C80.0129 71.5555 79.9025 71.3973 79.762 71.2686C79.6215 71.1398 79.4543 71.0437 79.2723 70.9871C79.0155 70.9159 78.7553 70.858 78.4925 70.8136H78.5023ZM28.0148 74.6263C28.1748 74.0909 28.2594 73.5358 28.2663 72.9771H28.2721C28.2702 72.0628 28.1981 71.363 27.9505 70.6982C27.8151 70.3078 27.6522 69.9273 27.4631 69.5598C27.0736 68.8615 26.565 68.2367 25.9602 67.7137C25.3361 67.1501 24.6076 66.7143 23.8158 66.431C23.3214 66.2567 22.8063 66.1479 22.2836 66.1074C21.1419 65.9945 19.99 66.1632 18.9287 66.5987C18.3634 66.8361 17.8375 67.1582 17.3691 67.5539C16.4873 68.2723 15.794 69.195 15.3496 70.2421C15.0969 70.8786 14.9418 71.5496 14.8895 72.2324C14.8576 72.7287 14.8746 73.2269 14.9402 73.7198C14.9992 74.2227 15.1224 74.716 15.3067 75.1877C15.5079 75.7125 15.7858 76.2045 16.1313 76.6478C16.9773 77.7219 17.9891 78.5875 19.2854 79.0865C19.8273 79.2944 20.3955 79.4256 20.9736 79.4764C22.4987 79.636 24.0296 79.2325 25.2779 78.3418C25.8907 77.902 26.4375 77.3769 26.9017 76.7823C27.4108 76.1437 27.789 75.4111 28.0148 74.6263ZM19.6382 73.1935C19.6188 73.0375 19.6051 72.8855 19.6051 72.8036V72.7977C19.5816 72.3918 19.67 71.9873 19.8605 71.6281C20.0411 71.3263 20.3229 71.0983 20.6558 70.9848C21.143 70.8247 21.6627 70.7905 22.1666 70.8854C22.486 70.9195 22.786 71.0553 23.0222 71.273C23.2585 71.4906 23.4185 71.7785 23.4786 72.094C23.5919 72.5629 23.5818 73.0532 23.4493 73.5171C23.3934 73.7369 23.2857 73.9401 23.1351 74.1097C22.9845 74.2793 22.7955 74.4103 22.5838 74.4918C22.0089 74.7139 21.3762 74.7372 20.7864 74.5581C20.4753 74.4813 20.1966 74.3079 19.9902 74.0627C19.7839 73.8175 19.6607 73.5131 19.6382 73.1935ZM35.9333 79.502C35.3289 79.5139 34.7264 79.431 34.1476 79.2564C33.5391 79.0841 32.9615 78.817 32.4361 78.4649C31.5787 77.9 30.8414 77.1712 30.2664 76.3206C29.9576 75.856 29.7179 75.3491 29.5548 74.8156C29.2926 73.972 29.196 73.0857 29.2702 72.2054C29.313 71.606 29.4389 71.0156 29.6445 70.4509C29.9959 69.5268 30.544 68.69 31.2508 67.9986C31.8024 67.4319 32.455 66.9731 33.1749 66.6457C33.7174 66.407 34.2899 66.2437 34.8767 66.1603C35.407 66.075 35.9455 66.0527 36.4811 66.094C36.8363 66.1278 37.1891 66.1832 37.5376 66.2597C37.8146 66.315 38.0861 66.3953 38.3486 66.4995C38.6911 66.6374 39.0239 66.7983 39.3447 66.981C40.0494 67.4027 40.6721 67.9482 41.183 68.5912C41.6114 69.1041 41.9543 69.6827 42.1987 70.3047C42.5799 71.2839 42.7255 72.339 42.6236 73.3848C42.5634 74.103 42.3815 74.8057 42.0856 75.4628C41.6605 76.3679 41.0525 77.175 40.2999 77.8333C39.7462 78.3413 39.1092 78.7501 38.4168 79.0419C37.6307 79.3691 36.7845 79.5271 35.9333 79.5059V79.502ZM36.0775 74.6772L36.3271 74.6577C36.6723 74.6374 37.0054 74.5228 37.2901 74.3263C37.4495 74.2064 37.5834 74.0558 37.6838 73.8834C37.7843 73.711 37.8492 73.5203 37.8749 73.3224C37.9702 72.8279 37.9373 72.3171 37.7794 71.8389C37.6945 71.5918 37.5424 71.3732 37.3403 71.2076C37.1382 71.042 36.894 70.9359 36.6351 70.9012C36.1115 70.7896 35.5679 70.8165 35.058 70.9792C34.8118 71.0582 34.5903 71.1997 34.4153 71.3901C34.2403 71.5805 34.1179 71.8131 34.0599 72.065C33.9433 72.5124 33.9433 72.9822 34.0599 73.4296C34.1337 73.7557 34.315 74.0474 34.5746 74.2581C35.019 74.611 35.5492 74.648 36.0814 74.6694L36.0775 74.6772ZM116.75 79.2585C117.331 79.4324 117.936 79.5134 118.543 79.4983L118.561 79.4924H118.929C119.588 79.4792 120.241 79.36 120.863 79.1396C121.263 78.9934 121.649 78.8093 122.015 78.5898C122.319 78.4117 122.6 78.197 122.851 77.9504C123.168 77.641 123.467 77.3154 123.766 76.9904C123.883 76.863 124 76.7356 124.118 76.6092L124.119 76.6086C124.298 76.4162 124.303 76.4102 124.089 76.272C123.755 76.0569 123.423 75.8434 123.091 75.6303L123.089 75.6292C122.772 75.4255 122.456 75.2222 122.14 75.0185C122.015 74.9384 121.89 74.8582 121.764 74.778V74.7776L121.763 74.7772L121.762 74.7766C121.401 74.545 121.038 74.3126 120.68 74.077L120.659 74.0633C120.428 73.9108 120.421 73.9064 120.247 74.1394C120.088 74.3672 119.881 74.558 119.642 74.6989C119.402 74.8399 119.135 74.9276 118.859 74.9562C118.422 75.0029 118.005 74.9756 117.642 74.6871C117.556 74.6192 117.468 74.5528 117.38 74.4865V74.4863C117.261 74.3966 117.142 74.3073 117.03 74.2154C116.997 74.1834 116.974 74.1429 116.962 74.0984C116.958 74.0887 117.009 74.0458 117.038 74.0458C117.135 74.0244 117.233 74.0044 117.33 73.9844C117.428 73.9644 117.525 73.9444 117.623 73.923C117.883 73.8671 118.143 73.8095 118.403 73.7518C118.533 73.723 118.663 73.6942 118.792 73.6657L120.095 73.3791L121.294 73.114L122.52 72.8411C122.657 72.8116 122.796 72.7823 122.935 72.753L122.936 72.7529C123.2 72.6971 123.465 72.6412 123.721 72.5837C124.175 72.4804 124.629 72.3829 125.085 72.2855C125.243 72.264 125.28 72.2192 125.28 72.0691C125.277 71.5832 125.181 71.1024 124.999 70.6519C124.827 70.2152 124.626 69.79 124.399 69.3789C123.998 68.6327 123.456 67.9708 122.804 67.4295C122.189 66.9196 121.475 66.542 120.707 66.3203C120.174 66.1663 119.625 66.0779 119.071 66.0571C118.024 65.9814 116.973 66.131 115.989 66.4958C115.394 66.7254 114.839 67.0492 114.346 67.4549C113.726 67.9839 113.199 68.6124 112.786 69.3146C112.397 69.9411 112.12 70.6313 111.97 71.3537C111.725 72.5036 111.784 73.6976 112.141 74.8177C112.307 75.3414 112.545 75.8389 112.851 76.2954C113.428 77.1514 114.168 77.8859 115.028 78.4573C115.556 78.8132 116.137 79.0836 116.75 79.2585ZM118.013 70.5953C118.228 70.5408 118.447 70.503 118.668 70.4823L118.66 70.4706C118.937 70.4818 119.208 70.5481 119.459 70.6656C119.71 70.7831 119.934 70.9494 120.12 71.1548C120.2 71.2347 120.184 71.2874 120.069 71.3166C119.804 71.3868 119.537 71.4492 119.27 71.5116L117.983 71.8079L116.658 72.1081C116.633 72.1139 116.578 72.1061 116.578 72.0944C116.562 72.051 116.562 72.0033 116.578 71.9599C116.678 71.7575 116.791 71.5621 116.917 71.3751C117.19 71.0049 117.574 70.7317 118.013 70.5953ZM6.43972 68.5648V68.5638C6.43669 66.839 6.43366 65.1139 6.44276 63.388C6.44463 63.0294 6.53645 62.6769 6.7098 62.3629C6.88315 62.0489 7.13249 61.7834 7.435 61.5907C7.89354 61.2776 8.43953 61.1179 8.99452 61.1345H15.4275H15.5192C15.8613 61.1166 15.8611 61.1481 15.8588 61.4045C15.8586 61.4271 15.8584 61.4514 15.8584 61.4776V65.1444C15.8584 65.3667 15.833 65.3881 15.6088 65.3881H12.4138C12.2059 65.3863 11.9991 65.4186 11.8017 65.4836C11.4118 65.6259 11.2675 65.9651 11.2519 66.3453C11.2363 66.7708 11.2372 67.1964 11.2381 67.6168V67.6169V67.617V67.6171V67.6172V67.6175C11.2385 67.7745 11.2388 67.9308 11.2383 68.0861V68.4136C11.2383 68.5227 11.2909 68.5676 11.4001 68.5656H13.5093C13.7861 68.5656 13.7881 68.5656 13.7881 68.8424V72.5697C13.7881 72.8095 13.7725 72.8231 13.5366 72.8231H11.4215C11.2617 72.8231 11.2422 72.8465 11.2422 73.0044V79.1197C11.2422 79.2366 11.2012 79.2834 11.0823 79.2834H6.56557C6.4486 79.2834 6.43301 79.2327 6.43301 79.1333V71.1408L6.44276 71.1505C6.44276 70.2887 6.44124 69.4268 6.43972 68.5648ZM45.3742 71.0454V74.1293H45.3586V77.0105C45.3518 77.3349 45.4199 77.6564 45.5575 77.9502C45.6951 78.244 45.8985 78.5021 46.152 78.7046C46.6147 79.0935 47.2028 79.3013 47.8071 79.2894H51.5909H52.6377C52.8151 79.2894 52.8326 79.266 52.8326 79.0828V75.299C52.8326 75.0806 52.8092 75.0572 52.5948 75.0572H51.2595C51.1328 75.0572 51.0064 75.0474 50.8813 75.028C50.7496 75.0074 50.6249 74.9556 50.5173 74.877C50.4098 74.7983 50.3227 74.695 50.2633 74.5757C50.1612 74.3532 50.117 74.1084 50.1347 73.8642V71.061C50.1347 70.8719 50.16 70.8407 50.3549 70.8407H51.7546C51.9125 70.8407 51.9495 70.8056 51.9495 70.6458V66.7665C51.9495 66.6085 51.9106 66.5715 51.7644 66.5715H50.3783C50.1658 66.5715 50.1327 66.5423 50.1327 66.3317C50.131 66.1728 50.1291 66.0141 50.1271 65.8554L50.127 65.8511V65.8507V65.8504V65.8501V65.8497C50.1221 65.4516 50.1171 65.0539 50.1171 64.6553C50.1156 64.3665 50.1128 64.0775 50.11 63.7883V63.787V63.7858V63.7845V63.7832C50.1057 63.3458 50.1015 62.9079 50.1015 62.47C50.0996 62.2731 50.0723 62.2594 49.8773 62.2594H45.5575C45.3859 62.2594 45.3625 62.2809 45.3625 62.4544V66.3532C45.3625 66.5403 45.3333 66.5715 45.1384 66.5715H43.5944C43.4463 66.5696 43.4131 66.5969 43.4131 66.7431V70.6555C43.4131 70.8115 43.456 70.8368 43.6081 70.8368H45.1676C45.3411 70.8387 45.3742 70.8738 45.3742 71.0454ZM92.9864 79.5001C92.3523 79.5205 91.7191 79.4389 91.111 79.2584C90.5031 79.0861 89.9261 78.819 89.4014 78.4669C88.5942 77.9346 87.8929 77.2571 87.3331 76.4688C86.97 75.9564 86.6916 75.3891 86.5085 74.7884C86.243 73.9221 86.1509 73.0119 86.2375 72.1099C86.3127 71.1948 86.5889 70.3075 87.0465 69.5114C87.5624 68.6331 88.2531 67.8701 89.0759 67.2696C89.5606 66.905 90.102 66.6225 90.6783 66.4333C91.7294 66.0808 92.8496 65.9845 93.9455 66.1526C94.3545 66.2146 94.7585 66.3064 95.1541 66.4274C95.7122 66.6026 96.2386 66.8658 96.7136 67.2072C97.406 67.7113 98.0061 68.3312 98.4876 69.0396C98.5461 69.1234 98.5422 69.1819 98.4466 69.2346C97.5811 69.7804 96.7169 70.3288 95.8539 70.8799L94.733 71.6011C94.551 71.7194 94.5474 71.7154 94.4208 71.5715L94.3919 71.5387C94.2376 71.363 94.0651 71.2042 93.8772 71.065C93.5954 70.8753 93.2562 70.7899 92.9181 70.8233C92.6127 70.818 92.3084 70.8628 92.0175 70.9559C91.8121 71.0236 91.6239 71.1352 91.466 71.283C91.3082 71.4308 91.1843 71.6112 91.1032 71.8117C90.9039 72.3294 90.8779 72.8978 91.0292 73.4316C91.0807 73.6722 91.1936 73.8954 91.3568 74.0795C91.5201 74.2637 91.7282 74.4024 91.961 74.4823C92.4815 74.6847 93.054 74.7107 93.5907 74.5564C93.9126 74.4485 94.1936 74.2443 94.3958 73.9716L94.4776 73.8702C94.4864 73.8577 94.4977 73.8471 94.5109 73.8394C94.524 73.8317 94.5387 73.8269 94.554 73.8254C94.5692 73.8239 94.5845 73.8258 94.5989 73.8308C94.6134 73.8359 94.6265 73.844 94.6375 73.8546L97.6376 75.7865C97.7573 75.8631 97.8766 75.9405 97.996 76.018L97.9975 76.0189L97.999 76.0199C98.1489 76.1172 98.2991 76.2146 98.4505 76.3109C98.4688 76.3183 98.485 76.3301 98.4976 76.3452C98.5101 76.3604 98.5188 76.3785 98.5226 76.3978C98.5265 76.4172 98.5255 76.4372 98.5197 76.456C98.5139 76.4749 98.5036 76.492 98.4895 76.5058C97.9163 77.3653 97.1609 78.0881 96.2769 78.6229C95.6169 79.0173 94.8844 79.2752 94.1229 79.3812C93.8497 79.4182 93.5755 79.4469 93.3011 79.4756H93.301C93.1994 79.4862 93.0977 79.4968 92.9961 79.5079C92.9952 79.4969 92.9952 79.4858 92.9961 79.4748L92.9864 79.5001ZM126.604 73.7183V68.7435C126.6 68.4251 126.627 68.1071 126.686 67.7941C126.737 67.4643 126.883 67.1563 127.105 66.9067C127.327 66.6572 127.616 66.4767 127.937 66.3866C128.277 66.2887 128.629 66.2433 128.982 66.2521H134.703C134.898 66.2521 134.928 66.2833 134.928 66.4822V70.262C134.928 70.4765 134.902 70.5018 134.688 70.5018H132.544C132.31 70.5064 132.078 70.5478 131.857 70.6246C131.53 70.7435 131.415 71.0379 131.372 71.3596C131.364 71.477 131.364 71.5949 131.372 71.7124V79.1201C131.372 79.2371 131.331 79.2819 131.212 79.2819H126.795C126.633 79.2819 126.6 79.2507 126.6 79.1065V73.7144L126.604 73.7183Z" fill="white"/>
</svg>
