<svg width="140" height="140" viewBox="0 0 140 140" fill="none" xmlns="http://www.w3.org/2000/svg">
<g clip-path="url(#clip0_46_507)">
<path d="M34.7341 89.3959C34.7341 89.3959 34.0194 87.8019 33.14 85.8781C32.3155 83.9542 31.546 82.2503 31.4361 82.1403C31.2162 81.8105 30.9414 81.5907 30.5016 81.4258C30.2818 81.3708 30.1168 81.3158 30.1168 81.2059C30.1168 81.096 30.2818 81.096 32.2606 81.096C34.3493 81.096 34.4591 81.096 34.4591 81.2059C34.4591 81.3158 34.4043 81.3158 34.1295 81.3708C33.6897 81.4807 33.3599 81.6456 33.25 81.8105C33.195 81.8655 33.195 82.0304 33.195 82.1953C33.25 82.5251 33.6896 83.6794 34.2943 84.9986C35.0088 86.5377 35.2287 87.0324 35.3386 86.9774C35.5035 86.9224 37.0427 83.2397 37.2076 82.4701C37.2625 82.1403 37.3175 82.0304 37.2626 81.9205C37.1526 81.7006 36.7128 81.4807 36.273 81.3708C35.9982 81.3158 35.9434 81.2609 35.9434 81.2059C35.9434 81.096 35.9982 81.096 37.7571 81.096C39.5161 81.096 39.571 81.096 39.571 81.2059C39.571 81.3158 39.4611 81.3708 39.2412 81.4258C38.9664 81.4807 38.8015 81.5907 38.5816 81.8655C38.1419 82.3052 37.3175 83.8993 35.4486 88.1867C34.899 89.341 34.789 89.5059 34.7341 89.3959ZM5.49178 89.1761C4.17258 88.9562 3.56795 88.3516 3.29311 87.0873C3.23815 86.8675 3.12823 85.988 3.07327 85.1085C2.79843 82.5801 2.6885 82.0854 2.24877 81.7006C2.08387 81.5357 1.91896 81.4807 1.75406 81.4807C1.14942 81.4258 1.14944 81.3708 1.14944 81.2609C1.14944 81.1509 1.14944 81.096 1.97394 81.096C2.41367 81.096 3.12821 81.041 3.56795 81.041H4.33749L4.39245 81.3158C4.39245 81.4807 4.44742 82.3602 4.50239 83.2946C4.61232 85.2185 4.77724 86.8125 4.83221 87.1973C4.94214 87.5271 5.27192 87.9668 5.60172 88.1867C6.04145 88.4615 6.48118 88.5714 7.14078 88.5714C8.07521 88.5714 8.7898 88.2416 9.1196 87.637C9.39443 87.0873 9.72424 85.2185 9.7792 83.7893C9.83417 82.69 9.7792 82.3602 9.50437 81.9754C9.33947 81.7006 8.84476 81.4258 8.56993 81.4258C8.35006 81.4258 8.24011 81.3708 8.24011 81.2609C8.24011 81.1509 8.2951 81.1509 10.3288 81.1509C12.3076 81.1509 12.4176 81.1509 12.4176 81.2609C12.4176 81.3708 12.2527 81.4258 11.9778 81.4258C11.758 81.4258 11.3183 81.6456 11.0984 81.8105C10.7137 82.1953 10.4388 82.9648 10.3288 84.1741C10.1639 85.933 10.0541 86.5926 9.9441 87.0324C9.6143 88.2416 9.00964 88.9562 7.96528 89.1761C7.41561 89.286 6.15138 89.286 5.49178 89.1761ZM61.6676 89.1211C61.3378 89.0661 60.6782 88.8463 60.3484 88.6814L60.0187 88.5165V87.2522C60.0187 85.988 60.0187 85.988 60.1287 85.988C60.2386 85.988 60.2936 86.0979 60.4035 86.5377C60.7882 88.0218 61.6128 88.7913 62.6571 88.7363C63.5366 88.6264 64.0862 87.8569 63.8663 87.0324C63.8113 86.7575 63.7565 86.6476 63.4267 86.3728C63.1518 86.0979 62.9318 85.933 62.1073 85.5483C61.5577 85.2734 61.0081 84.9436 60.8432 84.8337C60.0737 84.284 59.7988 83.2397 60.2385 82.3602C60.6233 81.4807 61.6127 80.9311 62.8769 80.9311C63.4815 80.9311 63.8663 80.986 64.4709 81.2059C64.8007 81.3158 64.8008 81.3708 64.8008 81.5907C64.8008 81.7006 64.8008 82.1953 64.8008 82.69C64.7459 83.5145 64.7458 83.5695 64.6358 83.5145C64.5259 83.5145 64.471 83.4046 64.3611 83.0198C64.1412 82.1953 63.8114 81.7006 63.3167 81.4807C62.6571 81.1509 61.9975 81.3158 61.6128 81.8655C61.3379 82.2503 61.3378 82.5251 61.4478 82.9648C61.6127 83.5145 61.9425 83.7893 63.1517 84.394C64.2511 84.9436 64.526 85.1085 64.8558 85.4933C65.4054 86.0979 65.5153 87.0324 65.1305 87.8019C64.8557 88.3516 64.1412 88.8463 63.3167 89.0112C62.9869 89.1761 61.9425 89.1761 61.6676 89.1211ZM126.473 89.0112C126.198 88.9562 125.813 88.7913 125.593 88.7363L125.264 88.5714V87.3072C125.264 86.1529 125.264 86.043 125.374 86.043C125.483 86.043 125.483 86.1529 125.593 86.5926C125.978 88.1867 126.968 89.0661 128.067 88.7913C128.891 88.5714 129.331 87.582 128.946 86.8125C128.727 86.3728 128.397 86.1529 127.297 85.6032C125.648 84.8337 125.264 84.339 125.264 83.2946C125.264 82.4701 125.593 81.9205 126.253 81.4807C127.187 80.8761 128.562 80.8211 129.716 81.3158L129.991 81.4258L129.936 82.0854C129.881 83.4595 129.826 83.6244 129.716 83.6244C129.606 83.6244 129.606 83.5695 129.551 83.3496C129.331 82.5251 129.001 81.9205 128.562 81.6456C128.232 81.4258 127.627 81.3708 127.297 81.5357C126.803 81.7556 126.528 82.1953 126.528 82.745C126.528 83.4595 126.968 83.8993 128.177 84.5039C129.551 85.1635 129.991 85.4933 130.266 86.1529C130.485 86.5926 130.43 87.4171 130.211 87.8569C129.936 88.4615 129.331 88.9012 128.507 89.1211C128.067 89.231 127.132 89.1761 126.473 89.0112ZM134.003 89.0112C133.783 88.9562 133.344 88.7913 133.124 88.7363L132.684 88.5714V87.3072C132.684 86.043 132.684 86.043 132.794 86.043C132.904 86.043 132.904 86.0979 132.959 86.3178C133.234 87.3622 133.509 87.9118 133.893 88.3516C134.718 89.1211 135.982 88.9562 136.422 88.0767C136.697 87.4721 136.587 86.8125 136.037 86.3728C135.927 86.2628 135.323 85.933 134.718 85.6032C133.124 84.7787 132.739 84.394 132.684 83.4046C132.629 82.5801 132.959 81.9205 133.674 81.4807C134.608 80.8761 135.982 80.8211 137.191 81.3158L137.466 81.4258L137.411 82.1953C137.356 83.4046 137.356 83.5695 137.191 83.5695C137.136 83.5695 137.026 83.4046 136.917 83.0198C136.697 82.3052 136.367 81.8105 135.982 81.5907C135.707 81.4258 135.597 81.4258 135.213 81.4258C134.883 81.4258 134.718 81.4807 134.553 81.5907C134.058 81.9205 133.838 82.4701 134.003 83.0748C134.168 83.5695 134.553 83.8993 135.762 84.5039C137.136 85.2185 137.411 85.4383 137.741 86.043C137.906 86.3178 137.906 86.4277 137.906 86.9224C137.906 87.4171 137.906 87.5271 137.741 87.8569C137.411 88.5165 136.917 88.9012 136.092 89.1211C135.487 89.1761 134.608 89.1761 134.003 89.0112ZM57.6552 89.0112C57.2704 89.0112 56.7756 88.9012 56.6657 88.9012C55.8412 88.6264 55.0717 87.9118 54.2472 86.6476C53.8625 86.043 53.2578 84.9436 53.2578 84.8887C53.2578 84.8887 53.4227 84.8337 53.5876 84.7787C54.4671 84.5039 54.7968 84.0642 54.7968 83.1847C54.7968 82.635 54.687 82.3052 54.3022 81.9754C53.9175 81.6456 53.2577 81.3708 52.7081 81.3708H52.4333V84.394C52.4333 87.7469 52.4883 87.8019 52.8731 88.2416C53.0929 88.4615 53.4227 88.5714 53.9724 88.6814C54.2472 88.7363 54.3022 88.7363 54.3022 88.8463C54.3022 88.9562 54.1922 88.9562 51.9385 88.9562C49.6299 88.9562 49.5751 88.9562 49.5751 88.8463C49.5751 88.7363 49.685 88.7363 50.0148 88.6264C50.5645 88.5165 50.8393 88.3516 51.0042 88.0218C51.1142 87.7469 51.1141 87.7469 51.1141 85.0536V82.3602L50.9492 82.0854C50.7843 81.7556 50.5645 81.5907 49.9598 81.4807C49.5751 81.3708 49.5201 81.3708 49.5201 81.2609C49.5201 81.1509 49.5751 81.1509 51.8287 81.1509C54.4122 81.1509 54.577 81.1509 55.4016 81.5357C56.1161 81.8655 56.4459 82.3602 56.4459 83.0748C56.4459 83.8443 56.061 84.394 55.1816 84.8337L54.7968 84.9986L54.9618 85.2734C55.4015 86.1529 56.5558 87.582 57.3254 88.1317C57.6552 88.4065 58.0948 88.6264 58.4796 88.7363C58.6445 88.7913 58.6995 88.8463 58.6995 88.9562C58.6995 89.0661 58.6445 89.1211 58.5345 89.0661C58.4246 89.0661 58.0399 89.0661 57.6552 89.0112ZM113.94 89.0112C113.556 89.0112 113.116 88.9012 112.896 88.8463C111.907 88.5714 110.972 87.582 109.873 85.6032L109.433 84.8337L109.763 84.7238C110.642 84.4489 111.027 84.0642 111.082 83.3496C111.192 82.2503 110.478 81.5357 109.048 81.3708L108.719 81.3158V83.6244C108.719 84.8887 108.719 86.3178 108.774 86.8125C108.829 88.1317 109.048 88.4065 110.038 88.5714C110.478 88.6264 110.533 88.6814 110.533 88.7913C110.533 88.9012 110.423 88.9012 108.224 88.9012C106.025 88.9012 105.915 88.9012 105.915 88.7913C105.915 88.6814 106.025 88.6814 106.3 88.5714C107.235 88.3516 107.344 88.1317 107.399 86.5926C107.454 85.933 107.454 84.8337 107.399 83.8993C107.344 82.3602 107.344 82.2503 107.18 81.9754C107.015 81.6456 106.74 81.4807 106.135 81.3708C105.805 81.3158 105.805 81.2609 105.805 81.1509V80.986H108.114C110.642 81.041 110.917 81.041 111.632 81.4258C112.072 81.6456 112.346 81.9205 112.511 82.2503C112.676 82.5801 112.676 83.4046 112.511 83.7344C112.346 84.0642 111.907 84.5039 111.467 84.7238C111.247 84.8337 111.082 84.9436 111.082 84.9986C111.082 85.1085 111.742 86.1529 112.182 86.6476C112.676 87.2522 113.446 88.0218 113.886 88.2416C114.05 88.3516 114.38 88.5165 114.6 88.5714C114.93 88.6814 114.985 88.7363 114.985 88.8463C114.985 89.1211 115.095 89.1211 113.94 89.0112ZM13.352 88.8463C13.352 88.7363 13.407 88.7363 13.6819 88.6814C14.2865 88.5714 14.6712 88.2416 14.7811 87.8019C14.946 87.1423 15.1109 84.8337 15.001 83.3496L14.946 82.4701L14.5612 82.0854C14.1765 81.7006 13.9016 81.5357 13.352 81.3708C13.242 81.3158 13.1321 81.2609 13.1321 81.2059C13.1321 81.096 13.2421 81.096 14.4514 81.096H15.7705L16.2103 81.6456C16.76 82.3052 17.2546 82.8549 18.4639 84.0642C18.9586 84.6138 19.7282 85.3834 20.1679 85.8231C20.6077 86.2628 20.9923 86.6476 20.9923 86.6476C21.0473 86.6476 21.0473 83.7344 20.9923 83.0198C20.9374 82.3602 20.8275 82.0304 20.6077 81.8105C20.3878 81.5907 19.893 81.4258 19.3983 81.3708C19.0685 81.3158 18.9587 81.3158 18.9587 81.2059C18.9587 81.096 19.0685 81.096 21.0473 81.096C23.0261 81.096 23.136 81.096 23.136 81.2059C23.136 81.3158 23.081 81.3158 22.8062 81.3708C22.4214 81.4807 22.0917 81.6456 21.9818 81.8655C21.707 82.4152 21.5971 84.8337 21.652 87.3622L21.7069 88.9012H21.4871C21.3222 88.9012 21.2122 88.8463 20.6625 88.2416C20.3327 87.8569 19.3984 86.9224 18.6289 86.0979C17.8593 85.2734 16.8698 84.284 16.4851 83.8993C16.1003 83.4595 15.7156 83.1297 15.6607 83.1297C15.6057 83.1297 15.6056 83.4046 15.6056 84.9986C15.6606 87.0324 15.7156 87.582 15.8805 87.9118C16.1004 88.3516 16.4302 88.5165 17.3097 88.6264C17.6944 88.6814 17.8043 88.7363 17.8043 88.7913C17.8043 88.9012 17.6944 88.9012 15.6056 88.9012C13.462 88.9562 13.352 88.9562 13.352 88.8463ZM24.6751 88.8463C24.6751 88.7913 24.7301 88.7363 24.785 88.6814C25.8844 88.4615 26.1043 88.2966 26.2143 87.4171C26.3242 86.7575 26.3242 83.1847 26.2143 82.69C26.1043 82.1953 26.0494 81.9754 25.8845 81.8105C25.7745 81.6456 25.2798 81.4807 24.8951 81.4258C24.6752 81.3708 24.6201 81.3708 24.6201 81.2609C24.6201 81.1509 24.6752 81.1509 26.9288 81.1509C29.0725 81.1509 29.2374 81.1509 29.2374 81.2609C29.2374 81.3158 29.1274 81.3708 28.7976 81.4807C28.3029 81.5907 27.9182 81.8655 27.7533 82.1953C27.6434 82.4701 27.5884 82.4701 27.6434 84.9436C27.6434 87.1423 27.6434 87.4721 27.7533 87.8019C27.9182 88.3516 28.303 88.5714 29.0725 88.7363C29.2374 88.7913 29.2924 88.7913 29.2924 88.9012C29.2924 89.0112 29.2373 89.0112 26.9837 89.0112C24.7301 88.9562 24.6751 88.9562 24.6751 88.8463ZM40.5606 88.8463C40.5606 88.7363 40.6155 88.7363 40.8354 88.6814C41.2202 88.6264 41.7148 88.4065 41.8247 88.2966C42.0995 87.9668 42.2095 87.1973 42.2095 84.8887C42.2095 82.3052 42.0995 81.9205 41.4949 81.5907C41.33 81.4807 41.0552 81.4258 40.8903 81.3708C40.6705 81.3158 40.5606 81.3158 40.5606 81.2059C40.5606 81.096 40.6704 81.096 43.9684 81.096H47.3764L47.3214 81.2059C47.3214 81.2609 47.2664 81.7556 47.2664 82.2503V83.1847H47.1016C46.9916 83.1847 46.9366 83.1297 46.9366 83.1297C46.7717 82.5251 46.6618 82.3052 46.387 82.0304C45.9473 81.5907 45.6174 81.4807 44.4632 81.4807H43.5836V83.0198V84.5589H44.2433C45.0678 84.5589 45.6724 84.5039 45.7823 84.339C45.8373 84.284 45.9473 84.0642 46.0022 83.8443C46.1122 83.5145 46.1671 83.4046 46.2771 83.4046C46.387 83.4046 46.387 83.4046 46.387 84.1191C46.387 84.5039 46.387 85.2185 46.3321 85.7132C46.2771 86.4827 46.277 86.5926 46.167 86.5926C46.1121 86.5926 46.0572 86.5377 46.0022 86.3178C45.9473 85.8781 45.7823 85.6032 45.4525 85.4383C45.2326 85.3284 45.0677 85.3284 44.3531 85.3284H43.4738V86.5926C43.4738 88.0767 43.5287 88.2416 44.0234 88.4615C44.2982 88.5714 44.4082 88.6264 44.9029 88.6264C45.4526 88.6264 45.5075 88.6264 45.8923 88.4065C46.5519 88.0767 47.1016 87.4721 47.4314 86.5377C47.5413 86.2628 47.5963 86.1529 47.7062 86.1529C47.7612 86.1529 47.8161 86.2079 47.8161 86.2079C47.8161 86.4277 47.4313 88.1867 47.2664 88.6264L47.1566 88.9562H43.8036C40.6155 88.9562 40.5606 88.9562 40.5606 88.8463ZM67.1094 88.8463C67.1094 88.7913 67.1644 88.7363 67.2743 88.6814C68.0988 88.5165 68.3737 88.3516 68.5386 87.9668C68.7034 87.5271 68.7583 86.5377 68.7583 84.5589C68.7034 82.5801 68.7034 82.1953 68.4286 81.8105C68.3187 81.6456 67.8239 81.4258 67.3842 81.3708C67.2193 81.3158 67.1644 81.3158 67.1644 81.2059C67.1644 81.096 67.2743 81.096 69.473 81.096C71.6717 81.096 71.7815 81.096 71.7815 81.2059C71.7815 81.3158 71.7266 81.3158 71.4518 81.3708C70.7922 81.5357 70.4073 81.8105 70.2424 82.3052C70.1325 82.635 70.1325 86.7026 70.2424 87.4171C70.3524 88.1867 70.6273 88.4065 71.3968 88.6264C71.7816 88.7363 71.8914 88.7363 71.8914 88.8463C71.8914 88.9562 71.7815 88.9562 69.5828 88.9562C67.1093 88.9562 67.1094 88.9562 67.1094 88.8463ZM74.6398 88.8463C74.6398 88.7363 74.6947 88.7363 74.8596 88.6814C75.2994 88.6264 75.8491 88.4065 75.959 88.2416C76.069 88.1317 76.1788 87.9118 76.2338 87.692C76.3437 87.3622 76.3438 86.9774 76.3438 84.5039V81.7006H75.5742C74.5848 81.7006 74.2 81.8105 73.9802 82.1403C73.8153 82.3602 73.5955 82.9648 73.5405 83.4046C73.5405 83.6244 73.4854 83.6794 73.3755 83.6794C73.3205 83.6794 73.2656 83.6244 73.2106 83.6244C73.1557 83.5695 73.2656 82.0304 73.3206 81.4258L73.3755 81.2059H77.0583H80.7411L80.7961 82.3052C80.8511 82.9099 80.906 83.4595 80.906 83.5145C80.961 83.6244 80.906 83.6794 80.7961 83.6244C80.6312 83.6244 80.6311 83.5695 80.5212 83.1847C80.3013 82.4152 80.0266 82.0304 79.5319 81.8655C79.257 81.8105 78.4326 81.7556 77.9379 81.7556H77.7729V84.4489C77.7729 88.1867 77.8279 88.3516 78.7074 88.6264C78.8723 88.6814 79.0921 88.7363 79.257 88.7363C79.4769 88.7913 79.5319 88.7913 79.5319 88.9012C79.5319 89.0112 79.4769 89.0112 77.1133 89.0112C74.7497 88.9562 74.6398 88.9562 74.6398 88.8463ZM84.094 88.8463C84.094 88.7363 84.149 88.7363 84.3139 88.6814C85.0834 88.5714 85.5231 88.2966 85.688 87.8569C85.743 87.7469 85.798 87.3622 85.798 86.8675L85.853 86.0979L85.5781 85.6032C84.8086 84.2291 83.5444 82.3052 83.1047 81.8655C82.8848 81.6456 82.445 81.4807 82.1152 81.3708C81.8954 81.3158 81.8404 81.3158 81.8404 81.2059C81.8404 81.096 81.8955 81.096 83.8743 81.096C85.7981 81.096 85.908 81.096 85.908 81.2059C85.908 81.3158 85.853 81.3158 85.6331 81.3708C85.4682 81.4258 85.2484 81.5357 85.1934 81.5907C84.8636 81.8655 84.9736 82.1953 86.1279 83.9542C87.0073 85.2734 86.8424 85.2185 87.4471 84.1191C87.8868 83.2397 88.2716 82.3602 88.2716 82.0304C88.2716 81.7006 88.1615 81.5907 87.7768 81.4258C87.6119 81.3708 87.502 81.3158 87.502 81.2059C87.502 81.096 87.5569 81.096 89.096 81.096C90.6351 81.096 90.69 81.096 90.69 81.2059C90.69 81.3158 90.5802 81.3158 90.3054 81.4258C89.8107 81.5357 89.4258 81.8655 89.096 82.3052C88.7662 82.69 88.1616 83.8443 87.612 84.9986L87.2271 85.7681V86.6476C87.2271 87.637 87.3371 87.9668 87.612 88.2416C87.8318 88.4065 88.3265 88.6264 88.6563 88.6814C88.8761 88.7363 88.9312 88.7363 88.9312 88.8463C88.9312 88.9562 88.8762 88.9562 86.5126 88.9562C84.1491 88.9562 84.094 88.9562 84.094 88.8463ZM96.9563 88.8463C96.9563 88.7363 97.0112 88.7363 97.231 88.6814C97.6158 88.6264 98.1106 88.4065 98.2205 88.2416C98.4954 87.9668 98.5503 87.637 98.5503 85.3284C98.6052 81.9754 98.4953 81.7006 97.341 81.4807C97.0112 81.4258 96.9563 81.3708 96.9563 81.2609C96.9563 81.1509 97.0113 81.1509 97.396 81.096C97.6159 81.096 98.6603 81.041 99.7046 81.096C101.518 81.096 101.628 81.1509 102.178 81.2609C103.277 81.5357 103.882 81.9205 104.156 82.5251C104.431 83.1297 104.321 84.1191 103.937 84.6138C103.552 85.1635 102.727 85.5483 101.683 85.7132C100.968 85.8231 100.858 85.8231 100.858 85.6582C100.858 85.5483 100.913 85.4933 101.243 85.4383C102.343 85.2185 102.672 84.8337 102.727 83.7893C102.727 83.3496 102.727 83.1297 102.672 82.9099C102.562 82.5251 102.123 82.0854 101.738 81.8655C101.353 81.6456 100.584 81.4807 100.199 81.4807H99.9245V84.5589C99.9245 87.3622 99.9794 87.692 100.034 87.9668C100.199 88.4615 100.584 88.6814 101.408 88.7913C101.628 88.8463 101.683 88.8463 101.683 88.9562C101.683 89.0661 101.573 89.0661 99.3198 89.0661C97.0112 88.9562 96.9563 88.9562 96.9563 88.8463ZM115.864 88.8463C115.864 88.7363 115.974 88.7363 116.359 88.6264C117.019 88.4615 117.238 88.2966 117.403 87.7469C117.513 87.4171 117.513 87.0324 117.513 84.9436C117.513 82.3602 117.513 82.2503 117.184 81.8655C117.019 81.6456 116.744 81.4807 116.249 81.4258C115.974 81.3708 115.864 81.3158 115.864 81.2609C115.864 81.1509 116.029 81.1509 119.217 81.1509H122.57L122.515 82.1403C122.515 82.69 122.46 83.1847 122.46 83.2397C122.46 83.2946 122.405 83.2946 122.295 83.2946C122.185 83.2946 122.131 83.1297 122.076 82.8549C121.746 81.8105 121.141 81.5357 119.492 81.5357H118.833L118.778 81.8655C118.778 82.0304 118.723 82.745 118.723 83.4046V84.6138L119.657 84.5589C120.262 84.5589 120.701 84.5039 120.811 84.4489C120.976 84.339 121.141 84.0642 121.251 83.7344C121.306 83.5695 121.306 83.5145 121.416 83.5145H121.581V84.6138C121.581 86.0979 121.526 86.5926 121.416 86.5926C121.361 86.5926 121.306 86.5377 121.251 86.2628C121.196 85.8781 121.031 85.6032 120.811 85.4383C120.646 85.3284 120.482 85.3284 119.712 85.3284H118.778V86.3728C118.778 87.4721 118.833 87.9668 118.997 88.2416C119.327 88.7363 120.701 88.7913 121.471 88.3516C122.021 88.0218 122.57 87.2522 122.79 86.5377C122.845 86.3178 122.9 86.2079 123.01 86.2079C123.065 86.2079 123.12 86.2628 123.12 86.3178C123.12 86.5377 122.79 88.1317 122.625 88.5714L122.515 89.0112H119.162C115.974 88.9562 115.864 88.9562 115.864 88.8463ZM10.2739 72.1364C7.25072 71.8066 4.83218 70.7623 3.01828 68.8934C2.19378 68.0689 1.6991 67.3543 1.14944 66.255C0.324937 64.551 -0.00488281 63.0669 -0.00488281 60.9782C-0.00488281 59.714 0.10507 58.9444 0.324937 57.9001C1.25937 54.1623 4.17259 51.359 8.18516 50.3696C9.39442 50.0948 10.2739 49.9849 11.6481 49.9849C17.0898 49.9849 21.1572 52.6782 22.6413 57.1855C23.4658 59.659 23.4659 62.5173 22.6964 64.8259C21.8169 67.5192 19.893 69.6629 17.1996 70.9272C15.9354 71.5318 14.5613 71.9165 13.0772 72.0814C12.5826 72.1914 10.7686 72.1914 10.2739 72.1364ZM13.1321 71.0921C15.9354 70.6523 17.7494 68.9484 18.6289 65.8153C19.1785 63.8365 19.3433 61.1431 19.0135 58.8895C18.6288 56.416 17.9142 54.712 16.4851 53.2279C15.4957 52.1835 14.2864 51.469 12.9672 51.1392C12.3626 50.9743 12.1977 50.9743 11.3182 50.9743C9.22953 50.9743 7.74542 51.5789 6.42622 52.9531C4.72225 54.712 3.73287 58.1199 4.00771 61.7477C4.22757 65.0457 4.99711 67.0795 6.75604 68.8934C8.56994 70.7073 10.7136 71.4768 13.1321 71.0921ZM79.147 72.1364C79.0371 72.1364 78.7622 72.0815 78.4324 72.0265C77.7179 71.9166 76.5637 71.6967 75.9041 71.4218C72.771 70.3225 70.4074 67.959 69.363 64.8808C68.9783 63.6716 68.7583 62.5173 68.7583 61.0332C68.7583 59.604 68.9233 58.4497 69.3081 57.2954C70.6273 53.3378 74.1452 50.6445 78.7624 50.0948C79.4769 50.0398 81.2907 50.0398 82.0603 50.0948C86.0728 50.5345 89.2059 52.5683 90.7999 55.7564C92.0092 58.1199 92.3391 61.0332 91.7345 63.7815C91.4596 65.1007 90.8549 66.4749 90.0854 67.5742C89.6456 68.1788 88.5464 69.3331 87.9967 69.7729C85.7981 71.4218 83.2696 72.1914 80.2464 72.1914C79.8067 72.1364 79.2569 72.1364 79.147 72.1364ZM81.7855 71.147C85.2484 70.7622 87.2821 68.3987 87.9417 63.8914C88.1066 62.8471 88.1066 60.0987 87.9417 59.0544C87.6668 57.2405 87.1172 55.7014 86.3477 54.5471C84.5338 51.8537 82.0602 50.6445 79.147 51.0842C77.6629 51.3041 76.6186 51.7988 75.6292 52.7332C74.1451 54.1074 73.2657 56.306 72.9909 59.1093C72.8809 60.0438 72.9359 62.4623 73.1008 63.2868C73.3206 64.606 73.5954 65.5954 74.0901 66.5848C74.5298 67.4642 74.9146 68.0689 75.6292 68.8384C77.3331 70.6523 79.312 71.4218 81.7855 71.147ZM24.6201 71.147C24.6201 70.7622 24.6751 70.7623 25.0049 70.7623C25.1148 70.7623 25.4447 70.7073 25.7745 70.6523C27.9732 70.2676 29.1274 69.4431 30.8314 67.0245C31.9857 65.3755 34.5141 61.8027 34.5141 61.7477C34.5141 61.6928 34.4592 61.5279 34.3493 61.363C34.2394 61.1981 33.4148 59.8239 32.4804 58.3398C31.5459 56.8557 30.6665 55.3716 30.4466 55.0968C29.2923 53.5027 28.0831 52.4584 26.709 51.8537C26.3242 51.6888 25.3347 51.469 25.0599 51.469C24.6751 51.469 24.6201 51.414 24.6201 51.0842V50.7544H28.028H31.4361L31.9857 51.6339C32.3155 52.1286 33.4698 53.9425 34.5691 55.6464C35.6684 57.4054 36.6028 58.7795 36.6578 58.7795C36.7677 58.7795 37.7572 57.2405 38.5267 56.0312C39.736 54.0524 40.1208 52.8981 39.791 52.3484C39.5711 51.9087 38.8566 51.5789 38.0871 51.5239L37.7023 51.469V51.1392V50.8094H42.0446H46.387V51.1392V51.469H46.167C45.2876 51.5239 44.0783 51.8537 43.3088 52.2935C42.7591 52.5683 41.7697 53.3378 41.4399 53.7226C40.8353 54.4372 40.3407 55.0968 39.1864 56.9107C37.3725 59.659 37.3175 59.714 37.3725 59.7689C37.4274 59.8789 42.0447 67.0245 42.3745 67.5192C43.6387 69.3331 44.848 70.2676 46.3321 70.6523C46.7718 70.7623 46.9367 70.7623 48.091 70.7623C49.5201 70.7623 50.3445 70.7073 51.169 70.4874C52.5981 70.1027 53.4776 69.3881 53.8624 68.1238L54.0274 67.6292V61.0332C54.0274 56.416 54.0274 54.2723 53.9724 53.8875C53.7525 52.3484 53.2029 51.7988 51.4989 51.469C51.1691 51.414 50.7843 51.359 50.6744 51.3041C50.4545 51.2491 50.4546 51.2491 50.4546 50.9743V50.6994H58.4246H66.3949L66.5048 52.8431C66.5597 53.9974 66.6146 54.9868 66.6146 55.0418C66.6146 55.0968 66.5048 55.0968 66.3399 55.0968H66.065L65.955 54.657C65.5702 52.9531 64.4161 52.0736 62.2724 51.7438C61.7777 51.6888 60.8982 51.6339 59.4691 51.6339L57.3254 51.5789V55.8113V60.0438L59.6339 59.9888C61.6676 59.9338 62.8769 59.8789 63.2067 59.7689C63.3166 59.714 63.3167 59.8789 63.3167 62.1875V64.661H63.0969C62.822 64.661 62.7671 64.606 62.7671 64.2212C62.7671 63.5067 62.4371 62.5173 62.1073 62.1325C61.5027 61.5279 60.6783 61.308 58.5896 61.4179L57.3802 61.4729V64.9908C57.3802 68.7285 57.4352 68.9484 57.71 69.553C57.8749 69.8828 58.3148 70.2675 58.6995 70.4324C58.9744 70.5424 60.1835 70.8172 61.063 70.9272C61.2829 70.9821 61.283 70.9821 61.283 71.2569V71.5318H51.0592H40.8354L38.0321 67.1344C36.493 64.7159 35.1738 62.7371 35.1738 62.7371C35.1188 62.7371 34.734 63.1769 33.7995 64.4961C32.4803 66.31 31.4361 68.1788 31.2712 68.8934C31.1063 69.7729 31.6559 70.3775 33.14 70.8722L33.5798 71.0371V71.3119V71.5868H29.0725H24.5653V71.147H24.6201ZM97.0661 68.6735C97.0661 67.1345 97.1211 64.0563 97.1761 61.7477C97.2311 57.0206 97.231 53.5577 97.1211 53.063C96.9012 52.2935 96.5715 51.7988 96.0219 51.6339C95.857 51.5789 95.4721 51.5239 95.1423 51.5239L94.5378 51.469L94.5927 51.1941C94.5927 51.0292 94.6477 50.9193 94.6477 50.9193C94.7027 50.8643 98.7152 50.7544 100.694 50.7544C103.112 50.6994 104.211 50.7544 105.476 50.9743C108.334 51.414 110.093 52.5133 110.697 54.2723C110.917 54.9319 110.972 56.0312 110.807 56.7458C110.313 58.6696 108.664 60.2636 106.245 61.0332L105.75 61.1981L105.915 61.4179C106.025 61.5279 106.52 62.1325 107.07 62.7371C111.577 67.849 114.49 70.3225 116.634 70.7073C117.074 70.7622 117.733 70.7622 118.448 70.5973C119.712 70.3225 120.536 69.608 120.811 68.3437C121.031 67.5742 121.031 66.9146 121.031 60.5385C121.031 54.767 120.976 54.2173 120.921 53.7776C120.701 52.8431 120.262 52.2935 119.547 51.9087C119.107 51.6888 118.118 51.414 117.623 51.359L117.293 51.3041V51.0292V50.7544L118.558 50.6994C121.471 50.5895 126.693 50.5895 127.792 50.6445C132.519 50.9743 135.707 52.0736 137.796 54.2173C139.5 55.9762 140.27 58.2848 140.16 61.1981C140.105 62.2974 140.05 62.8471 139.72 63.7815C138.566 67.2444 135.103 70.1026 131.035 70.9821C129.826 71.2569 129.606 71.2569 121.911 71.2569C115.095 71.2569 114.435 71.2569 113.831 71.147C112.346 70.9271 111.082 70.2676 109.048 68.8934C107.564 67.849 106.355 66.6947 104.926 64.9908C104.266 64.2212 101.958 61.1431 101.903 60.9782C101.848 60.9232 101.903 60.8683 102.123 60.8683C102.507 60.8683 103.387 60.5934 103.992 60.2636C105.256 59.604 106.355 58.5047 106.85 57.5153C107.125 56.9107 107.235 56.306 107.18 55.7014C107.015 54.4921 106.465 53.5027 105.531 52.7882C104.486 51.9637 103.057 51.5239 101.463 51.469L100.748 51.414L100.694 53.3928C100.584 57.8451 100.584 67.5192 100.639 68.0689C100.858 69.7179 101.408 70.1576 103.662 70.4874C104.761 70.6523 104.651 70.5973 104.651 70.9821V71.3119H100.913H97.1761L97.0661 68.6735ZM129.276 70.3775C132.629 69.8278 134.993 67.4643 135.762 63.7815C135.982 62.7921 136.037 60.8133 135.872 59.7689C135.652 58.1749 135.213 56.9656 134.443 55.8113C132.959 53.6127 130.65 52.2385 127.572 51.7988C126.748 51.6888 124.989 51.6339 124.494 51.7438L124.164 51.7988V60.0438C124.164 67.4643 124.219 68.3437 124.274 68.6186C124.549 69.553 125.044 69.9927 125.868 70.2126C126.693 70.5424 128.177 70.5424 129.276 70.3775Z" fill="white"/>
</g>
<defs>
<clipPath id="clip0_46_507">
<rect width="140" height="140" fill="white"/>
</clipPath>
</defs>
</svg>
