<svg width="140" height="140" viewBox="0 0 140 140" fill="none" xmlns="http://www.w3.org/2000/svg">
<g clip-path="url(#clip0_46_467)">
<path d="M125.776 56.3491C127.339 51.1909 130.27 49.3874 130.739 49.0435C132.735 47.8817 133.11 48.8304 133.373 49.2305C133.957 50.3148 133.16 52.6031 132.906 53.3073C131.515 57.202 128.7 59.0283 128.252 59.3372C125.805 60.6831 125.715 58.9614 125.64 58.4587C125.582 58.1066 125.686 57.0184 125.776 56.3491ZM119.305 58.297C119.305 58.297 118.794 62.7041 124.673 62.336C125.382 62.2881 130.833 61.9955 135.276 58.1933C135.95 57.6069 139.35 54.72 139.819 51.7401C139.946 51.0936 141.31 45.545 134.014 45.9096C133.132 46.0288 128.532 46.3969 124.276 50.1308C123.65 50.6567 119.332 54.4764 119.305 58.297ZM112.921 50.8688C112.921 50.8688 111.497 48.3413 107.99 48.7631C107.391 48.8721 106.101 49.1457 104.983 49.955C104.818 50.0993 104.254 50.679 105.122 50.7657C105.643 50.8364 108.171 50.9952 108.318 53.1131C108.326 53.6719 108.657 55.6445 106.679 62.5128C106.527 62.9181 105.987 64.31 107.919 64.2214C108.585 64.1962 111.696 64.0664 113.265 63.4082C113.783 63.1651 114.534 63.0445 114.444 61.8231C114.449 61.3049 114.45 55.4987 113.955 53.9204C114.187 53.425 115.356 51.2151 118.308 49.8402C118.8 49.6368 120.527 48.7098 121.936 50.0664C122.157 50.2528 122.426 50.5579 123.071 50.0993C123.516 49.7395 125.154 48.4411 124.853 46.6768C124.711 46.2341 124.586 45.1537 121.954 45.3929C121.182 45.5077 117.516 45.7145 112.921 50.8688ZM94.3012 53.1508C98.463 51.8742 97.4426 57.2272 96.6878 58.3696C95.6527 61.1456 92.9932 62.5801 92.9932 62.5801L92.0202 54.2613C92.8073 53.7896 93.7791 53.3305 94.3012 53.1508ZM80.0137 39.4409C80.0137 39.4409 79.2679 39.7276 80.2312 39.9722C80.6177 40.1833 81.7093 40.7248 82.3455 42.4295C82.6664 43.2688 84.5502 48.149 85.7435 55.4726C85.8565 56.1559 86.821 62.7757 86.695 64.5352C86.7679 65.0146 86.7085 67.1567 90.3427 66.3532C92.8417 65.7939 98.6631 62.3864 102.657 57.2446C103.178 56.7153 108.089 49.5356 98.6772 49.6378C97.2308 49.8368 95.4549 49.9501 91.7891 52.0336C91.6908 51.6088 90.8218 43.0615 89.5313 39.7029C89.0799 38.9493 88.751 37.7565 85.7813 38.0437C85.0553 38.1396 81.7929 38.5343 80.0137 39.4409ZM83.0348 51.7968C83.0348 51.7968 83.462 51.9169 83.3947 51.3711C83.3275 50.8233 83.1885 48.9762 81.3697 48.1335C80.9482 47.9747 80.1758 47.5403 78.2718 48.0992C77.7248 48.2701 70.8351 50.4121 67.5727 55.5476C67.3263 55.9966 65.1584 59.976 69.292 61.0575C69.292 61.0575 72.3696 61.8023 74.246 61.9738C74.246 61.9738 80.121 62.4358 76.6315 66.6002C76.1281 67.192 74.1003 69.5172 71.0091 71.5817C70.4283 71.9231 68.0258 73.4119 65.2188 72.1101C64.7465 71.9348 63.8515 71.7071 64.1702 72.6481C64.3979 73.0346 65.8692 75.1883 68.0688 76.1995C68.5665 76.3874 70.0972 77.4756 75.171 75.0585C76.2586 74.579 81.8805 70.9269 84.1326 66.824C84.4377 66.0864 86.2537 62.5074 82.3059 61.2943C81.1166 60.8788 77.9429 60.2884 77.1028 60.1015C75.5501 59.7334 70.9769 59.0515 73.9003 55.5287C74.6399 54.873 77.4497 52.3837 83.0348 51.7968ZM7.20622 62.1142C6.22366 62.1805 6.54854 61.5113 7.0497 61.2614C10.9517 59.1997 17.9646 57.7115 17.9646 57.7115L18.3573 60.0361C13.2535 61.3156 8.51139 62.1181 7.20622 62.1142ZM17.8042 56.5811C17.8042 56.5811 7.60229 59.0031 2.86127 61.1936C1.04475 61.9738 -3.01825 65.5261 3.82688 65.5261C5.13205 65.4762 6.94631 65.282 9.55949 64.6984C10.3607 64.5173 18.7743 62.6053 18.7743 62.6053L20.3122 71.3618C20.3122 71.3618 20.5993 72.8094 20.7671 73.2845C20.7671 73.2845 21.1168 75.7718 23.4441 75.4256C24.0809 75.3902 26.3138 75.334 28.3298 74.7199C28.697 74.5771 29.6621 74.3843 29.2146 73.1658C29.153 72.56 26.8845 60.8308 26.8845 60.8308L34.902 59.1275L37.0654 70.9269C37.0654 70.9269 37.4717 73.6303 39.9447 73.1315C40.6905 73.0346 42.5263 72.8283 43.654 72.2922C43.9309 72.1319 44.5716 71.9493 43.8043 70.7356C43.5744 70.1128 41.1341 62.8009 40.6645 58.159C41.1855 58.0795 50.1856 56.7361 49.8398 57.0606C49.4985 57.3831 46.8718 59.6845 45.4564 63.1501C44.4304 65.0147 45.3943 70.7594 51.9806 69.1772C53.1027 68.8232 55.7566 68.1282 58.7037 64.9328C58.85 65.2394 60.7287 69.3709 66.076 68.2096C66.6325 68.0778 67.4563 67.9853 66.6218 67.394C66.2144 67.1751 64.19 66.2816 64.2877 62.7699C64.3403 61.8333 64.6742 59.1242 65.3833 55.9244C65.4386 55.5699 65.5545 54.3059 63.9272 54.6154C63.1074 54.811 61.3542 55.304 59.8275 56.2784C59.4569 56.5462 59.0229 56.7385 58.7387 57.895C58.5167 58.4737 56.2419 64.4296 52.5479 66.5484C51.9055 66.8865 50.7054 67.594 50.6342 66.144C50.5613 65.3566 51.3303 60.9504 57.7381 56.1181C58.515 55.5709 60.3886 54.4037 61.1462 54.226C61.7762 54.134 62.4898 53.4545 61.2677 53.1746C61.2677 53.1746 59.2224 52.7494 52.4405 53.5586C51.7772 53.6308 46.2169 54.2584 40.3007 55.3224C40.2385 54.6987 39.5718 46.9557 40.0961 43.0276C40.1832 42.2629 41.1341 39.5813 37.9734 40.0376C37.3818 40.0957 34.2906 40.4817 32.7069 41.3485C32.2803 41.5612 31.7074 41.7229 32.36 42.107C32.6244 42.3694 33.1002 42.7443 33.2024 44.2025C33.2708 44.7541 34.4833 56.4387 34.4833 56.4387L26.4353 58.2127C26.4353 58.2127 24.921 48.4411 24.8425 44.31C24.7866 43.6306 25.2657 40.7737 21.6553 41.8406C20.8422 42.0207 17.1154 42.8421 14.5265 44.5614C14.5265 44.5614 13.0558 45.3014 14.5627 45.6055C14.9972 45.8331 15.5831 46.0772 15.8187 47.2114C15.9718 47.8691 17.8042 56.5811 17.8042 56.5811Z" fill="white"/>
<path d="M102.364 66.1869C102.35 66.2489 102.305 66.3114 102.251 66.4315C98.8707 72.784 90.178 78.164 89.3909 78.6173C81.461 83.763 72.7129 85.4178 71.5755 85.6377C61.5217 87.8776 52.5922 87.0644 51.9453 87.0591C54.1104 93.0145 65.4248 96.8293 65.8711 96.9804C77.8844 101.217 87.71 97.7122 88.8745 97.394C97.991 94.694 100.89 88.0945 101.483 86.9516C104.72 80.0872 103.516 72.9864 103.329 71.6875C103.217 70.1785 102.729 68.6219 102.618 68.1236C102.477 67.3308 103.498 67.4562 103.516 67.9425C105.347 73.3201 105.354 78.0759 105.347 78.8692C105.318 86.5147 102.76 89.9445 102.364 90.6749C99.0396 96.1784 94.6094 98.2715 93.8409 98.6851C86.3144 102.945 77.3109 102.53 75.8956 102.483C62.8291 101.972 54.6782 96.4922 53.1748 95.4699C44.7668 89.7997 44.0312 82.6317 44.0176 82.1871C43.9961 81.7415 44.1374 81.9164 45.0696 82.1101C59.5826 85.5554 72.2688 82.1164 72.9756 81.9701C91.9193 78.0589 101.497 65.9941 101.497 65.9941C102.164 65.1171 102.6 65.8697 102.364 66.1869Z" fill="white"/>
</g>
<defs>
<clipPath id="clip0_46_467">
<rect width="140" height="140" fill="white"/>
</clipPath>
</defs>
</svg>
