<svg id="Layer_1" data-name="Layer 1" xmlns="http://www.w3.org/2000/svg" viewBox="0 0 615.15 567.5"><defs><style>.cls-1,.cls-5{fill:#017bb3;}.cls-1,.cls-2,.cls-3,.cls-4{stroke:#6c6b6b;stroke-miterlimit:10;stroke-width:0.5px;}.cls-2{fill:#00254e;}.cls-3{fill:#33bcfb;}.cls-4{fill:#bce9fe;}.cls-6{fill:#6c6b6b;}</style></defs><g id="logo"><polygon class="cls-1" points="514.01 132.03 513.96 132.07 513.96 132.03 514.01 132.03"/><path class="cls-1" d="M368.19,468.91a.17.17,0,0,1-.13,0c-.84-.27-1.32-.4-1.8-.58Q308.84,446.15,251.42,424a5.86,5.86,0,0,1-2.42-1.67q-28.67-32.83-57.26-65.79c-.13-.18-.31-.4-.62-.84,5.54-.08,12-.22,18.9-.35l6.2-.13,21.36-.4c4.13-.08,8.26-.17,12.26-.22,1.32,0,2.64,0,3.95-.08,1.85-.05,3.7-.09,5.54-.09,1.32-.05,2.64-.05,3.91-.09,1,0,2,0,3,0,14.67-.27,25.05-.49,25.05-.49l.61.4,0,0C317.43,392.53,342.7,430.54,368.19,468.91Z" transform="translate(-190.65 -222.05)"/><path class="cls-2" d="M381.86,305.2c-.13,0-.22-.13-.35-.17q-4.56,13.91-9.1,27.77c-3.08,9.19-6.11,18.42-9.19,27.69a4.59,4.59,0,0,0-.74,0c-10.64-1-21.32-1.94-32-2.82q-15.36-1.38-30.72-2.72c-2.59-.27-5.18-.49-7.78-.7h0l-.61-.44c-.14-.71-.84-5.06-2-11.74-.13-.88-.27-1.8-.44-2.68-.09-.48-.13-.92-.22-1.41-.27-1.53-.53-3-.75-4.57s-.57-3.25-.83-4.92c-.18-1.14-.4-2.33-.57-3.51-3-17.8-6.73-40.48-9.63-58.1-.39-2.33-.79-4.62-1.14-6.77-.18-1.06-.35-2.11-.53-3.12,35.55,16,70.89,31.86,106.35,47.81.05,0,.05.05.09.05Z" transform="translate(-190.65 -222.05)"/><path class="cls-1" d="M720.65,257c-.48,2.86-.88,5.45-1.32,8.09q-4.41,26.63-8.87,53.31c-1.94,11.69-3.87,23.42-5.85,35.11a2.34,2.34,0,0,0,0,.53v0h0c-8.35.75-16.75,1.54-25.1,2.29-6.15.53-12.26,1.1-18.41,1.62l-4.26.4L645,359.43l-4.79.4-4.87.4-1.1.13-1.54.13c-4.66-14.06-9.27-28.13-13.93-42.23-1.45-4.36-2.86-8.66-4.31-13l0-.18h0c-23.29,12.13-46.41,24.26-69.7,36.43,0,0-.09-.08-.09-.13C529,323.66,513.53,306,498,288.2c-15.56,17.71-31,35.37-46.63,53.17,0,.05,0,.09-.09.13-23.07-12-46.06-24.12-69.3-36.25l-.18-.4,0,0c12.83-27.43,25.62-54.76,38.49-82.36L498,287.84l77.7-65.39c12.83,27.47,25.62,54.85,38.5,82.36a.15.15,0,0,0,.13-.05l0,0C649.72,288.85,685,273,720.65,257Z" transform="translate(-190.65 -222.05)"/><path class="cls-2" d="M720.61,681.79C685.1,665.8,649.77,650,614.3,634a.17.17,0,0,0-.13,0c-12.84,27.42-25.62,54.8-38.5,82.36-26-21.85-51.77-43.56-77.7-65.4q-38.84,32.64-77.75,65.4c-12.87-27.56-25.66-54.94-38.49-82.36a.19.19,0,0,0-.14,0c-35.46,16-70.8,31.78-106.35,47.82,5.41-32.57,10.77-64.83,16.13-97.22,1.67-.17,3.25-.3,4.79-.44,10.42-.87,20.79-1.8,31.12-2.72a10.35,10.35,0,0,1,1.67-.13c3.29-.31,6.59-.62,9.88-.88,5.19-.44,10.33-.92,15.52-1.36l1.32-.14h.17a9.63,9.63,0,0,0,1.06-.08c.08,0,.13,0,.22,0h.3a2.37,2.37,0,0,0,.53,0l3-.26h0l0,0h0a2.37,2.37,0,0,0,.53,0l1.62-.13q9,27,17.89,54.18c.13.44.26.84.4,1.28,23.29-12.18,46.45-24.31,69.74-36.48.05.05.09.09.09.13h0c15.52,17.71,30.94,35.38,46.59,53.18,15.51-17.71,31-35.38,46.58-53.18,0,0,.05-.08.09-.13q34.82,18.19,69.75,36.48c1-3.12,2-6.2,3.07-9.32.22-.66.44-1.27.66-1.93.35-1.15.71-2.24,1.1-3.39.09-.3.18-.57.26-.88.22-.65.44-1.36.66-2,1.15-3.38,2.25-6.81,3.39-10.19q4.54-13.85,9.14-27.73c.22,0,.44,0,.66,0l28.21,2.5q10.62.93,21.23,1.89c1.85.14,3.74.31,5.58.49l5.36.48,7.3.66c1.19.13,2.42.22,3.6.35,1.06,6.64,2.16,13.27,3.25,19.91,2.64,16.17,5.37,32.35,8,48.52,1.53,9.23,3.07,18.5,4.61,27.73A7.73,7.73,0,0,1,720.61,681.79Z" transform="translate(-190.65 -222.05)"/><path class="cls-1" d="M368,469.57c-.13.22-.31.44-.44.66a0,0,0,0,0,0,0c-1.23,1.94-2.55,3.78-3.78,5.71q-35.54,53.4-71,106.84A3.44,3.44,0,0,1,291.5,584l0,0a2.81,2.81,0,0,1-.62.18,2.76,2.76,0,0,1-.66.09h-.39q-48.78-1-97.61-1.89c-.26,0-.53,0-1-.09.27-.35.44-.66.66-.92q28.35-32.64,56.74-65.18a8.76,8.76,0,0,1,3.25-2.28q57.09-22.1,114.26-44c.53-.18,1.06-.4,1.59-.57A1.22,1.22,0,0,1,368,469.57Z" transform="translate(-190.65 -222.05)"/><path class="cls-1" d="M704.61,584.71v0s0,0,0,0Z" transform="translate(-190.65 -222.05)"/><path class="cls-1" d="M805.3,583c-4.09,0-7.69,0-11.3,0l-79.1,1.45-10.29.27v0h0q-6.8-10.22-13.63-20.39-30.91-46.54-61.79-93c-.13-.18-.26-.4-.39-.62,0,0,0,0,0,0s0-.13-.13-.18l-.53-.88c.84.31,1.37.44,1.85.62l115,44.3a7.05,7.05,0,0,1,2.42,1.67q28.53,32.83,57.08,65.7A10.47,10.47,0,0,1,805.3,583Z" transform="translate(-190.65 -222.05)"/><path class="cls-1" d="M805.12,356.14c-2.28,2.59-4.35,5-6.46,7.43q-25.51,29.4-51.07,58.71a8.19,8.19,0,0,1-3.16,2.2q-57.28,22.14-114.53,44.17c-.48.17-1,.3-1.76.57.31-.49.49-.84.66-1.15l.09-.08a.28.28,0,0,1,.09-.18l75.28-113.25c0-.14.18-.22.26-.35a0,0,0,0,1,.05,0l0,0c12.57.22,25.1.48,37.67.74l61.52,1.19C804.15,356.05,804.51,356.09,805.12,356.14Z" transform="translate(-190.65 -222.05)"/><path class="cls-1" d="M524.6,523.14s0,.09.09.09c-8.92,12.7-17.8,25.36-26.9,38.28-8.83-12.79-17.49-25.4-26.41-38.37l-.31-.44a6.43,6.43,0,0,0,1.19-.75q12.25-11.07,24.52-22.19a2.13,2.13,0,0,0,.66-1.41c0-9.71,0-19.42,0-29.13s0-19.21.09-28.79a2.34,2.34,0,0,0-.88-2,1.73,1.73,0,0,1-.31-.3c-.18-.14-.35-.31-.57-.49Q483.79,427,471.91,416.22c-.22-.18-.44-.31-.75-.58.09-.08.13-.22.22-.3,8.83-12.88,17.58-25.49,26.41-38.37,9,12.79,17.89,25.45,27,38.41,0,0,0,0,0,.09a4.55,4.55,0,0,1-.65.35,2,2,0,0,0-.62.44c-1.27,1.14-2.5,2.33-3.78,3.47C513.22,425.88,506.71,432,500,438a4.36,4.36,0,0,0-1.62,3.78q.06,27.49,0,55.07a4,4,0,0,0,1.49,3.52c4.84,4.17,9.41,8.61,14.11,12.92C517.48,516.55,521,519.8,524.6,523.14Z" transform="translate(-190.65 -222.05)"/><path class="cls-3" d="M496.52,469.08c-5.14,2.33-10,4.58-14.9,6.77-9,4.13-18,8.27-27.07,12.31a.74.74,0,0,1-.44.13,2.94,2.94,0,0,1-1.63.13q-36.25-9.09-72.47-18.24a2.16,2.16,0,0,1-1.14-.66c3.25-.87,6.46-1.75,9.67-2.59,21-5.58,42.06-11.21,63.11-16.74a4.83,4.83,0,0,1,2.94.26L465,455.07c.66.3,1.32.61,2,.87.92.4,1.85.84,2.77,1.24l.92.39c.4.18.84.4,1.23.57,1.19.53,2.33,1,3.47,1.54Z" transform="translate(-190.65 -222.05)"/><path class="cls-3" d="M616.72,469.88c-3,.74-6,1.53-8.93,2.28q-32,8.11-64,16.17a5.25,5.25,0,0,1-2.19.05c-.31-.09-.62-.22-1-.35-13.76-6.29-27.51-12.57-41.44-18.9.43-.26.79-.44,1.09-.62l41-18.19a.67.67,0,0,1,.31-.09s.08,0,.17,0a3.5,3.5,0,0,1,1.89-.09q35.93,9.5,71.77,19.07a11.12,11.12,0,0,1,1.27.4C616.67,469.66,616.72,469.79,616.72,469.88Z" transform="translate(-190.65 -222.05)"/><path class="cls-4" d="M412.75,548.06v0c-.57.35-1.09.71-1.67,1.06q-22.8,13.9-45.66,27.82a12.22,12.22,0,0,1-2.2,1,.34.34,0,0,1-.22.05,4.66,4.66,0,0,1-1.14.3.48.48,0,0,1-.26,0,2.37,2.37,0,0,1-.53,0,.14.14,0,0,1-.09,0h0a1,1,0,0,1-.35,0c-.88.09-1.76.13-2.64.22a2.37,2.37,0,0,1-.53,0,1.84,1.84,0,0,1-.52,0,9.63,9.63,0,0,1-1.06.08l-1.49.14c-5.19.44-10.33.92-15.52,1.36-3.29.26-6.59.57-9.88.88a10.35,10.35,0,0,0-1.67.13c-8.75.75-17.54,1.49-26.29,2.29-1.58.13-3.2.26-4.83.43s-3.12.27-4.79.44h-.26c.13-.22.26-.39.35-.57l0,0c.27-.4.44-.7.66-1q37.32-56,74.62-112a1.45,1.45,0,0,1,.36-.4,2.31,2.31,0,0,1,.35-.35,0,0,0,0,1,0,0,3.44,3.44,0,0,1,5.06,1q19.44,37.31,38.8,74.62c.27.53.92,1.67,1,1.76h-.05l.27.31h0Z" transform="translate(-190.65 -222.05)"/><path class="cls-2" d="M583.1,548.06l-1.5-.53q-28.08-11.92-56.12-23.91a3.22,3.22,0,0,1-.79-.39s0-.05-.09-.09a7,7,0,0,1-1.32-1c-7.73-7.12-15.42-14.28-23.16-21.4-1.54-1.45-2.46-1.45-4,0q-11.73,10.68-23.47,21.45a7.73,7.73,0,0,1-1.23.92,9.63,9.63,0,0,1-1.27.66c-18.64,7.87-37.32,15.65-55.95,23.51a14.8,14.8,0,0,0-1.36.75l-.4-.44c.05-.09.84-1.19,1.14-1.67q19.51-28.08,39-56.12a5.16,5.16,0,0,1,1.58-1.54,3.44,3.44,0,0,1,.88-.53c13-6,26.1-11.82,39.16-17.75.52-.27,1.09-.53,1.93-.93-.79-.35-1.32-.65-1.85-.92-6.63-2.94-13.23-5.93-19.82-8.88-2.46-1.09-4.92-2.19-7.38-3.34-.7-.26-1.36-.57-2-.87-3.47-1.59-6.95-3.12-10.42-4.71a4.9,4.9,0,0,1-2.06-1.58q-19.71-28.47-39.38-57a6.57,6.57,0,0,1-.44-.88c2.5,1,5.05,1.94,7.56,3q24.92,10.35,49.84,20.79a10.88,10.88,0,0,1,1.27.66,8.58,8.58,0,0,1,1.23,1c7.74,7.08,15.43,14.24,23.12,21.36.22.18.39.35.57.49,1.32.92,2.46.79,3.82-.44l19.69-18c1.28-1.14,2.51-2.33,3.78-3.47a2,2,0,0,1,.62-.44,1.8,1.8,0,0,1,.61-.44,3.77,3.77,0,0,1,.84-.48q28-11.86,56.07-23.69c.31-.13.66-.22,1.28-.44a12.25,12.25,0,0,1-.84,1.36q-19.3,28.29-38.67,56.52a4.41,4.41,0,0,1-.79.83,5.35,5.35,0,0,1-.75.58.75.75,0,0,0-.22.13c-.09,0-.13,0-.17,0a.57.57,0,0,1-.22.13q-19.92,8.91-39.82,17.76c-.57.26-1.14.53-2,.92.74.4,1.27.66,1.8.92q19.91,9.1,39.82,18.15c.13.09.3.18.44.27s0,0,.08,0a2.58,2.58,0,0,1,.71.53,2.91,2.91,0,0,1,.7.7q19.71,28.68,39.38,57.35A9.65,9.65,0,0,1,583.1,548.06Z" transform="translate(-190.65 -222.05)"/><path class="cls-2" d="M412.71,390.9s0,0-.09,0l.05-.05C412.67,390.86,412.67,390.86,412.71,390.9Z" transform="translate(-190.65 -222.05)"/><path class="cls-4" d="M412.62,390.86c-.31.52-.66,1-1,1.58Q392.15,430,372.59,467.55a3.45,3.45,0,0,1-4.4,1.36.17.17,0,0,1-.13,0,1.8,1.8,0,0,1-.48-.31.76.76,0,0,1-.18-.13,2.22,2.22,0,0,1-.53-.58Q329.43,411.75,292,355.61c-.26-.39-.48-.79-.88-1.4.26,0,.53,0,.79,0l0,0c2.73.18,5.28.4,7.78.62q15.36,1.32,30.72,2.72c10.68.93,21.32,1.85,32,2.82a4.93,4.93,0,0,1,.79.22,4.63,4.63,0,0,1,.92.43q23.67,14.38,47.29,28.79A7.76,7.76,0,0,1,412.62,390.86Z" transform="translate(-190.65 -222.05)"/><path class="cls-4" d="M704.79,354.16c-.49.7-.71,1.14-1,1.58q-37.24,55.9-74.54,111.85a2,2,0,0,1-.31.35s0,.05,0,.05l-.09.08a4.43,4.43,0,0,1-1.54.84,5.19,5.19,0,0,1-.74.22,3.53,3.53,0,0,1-2.24-.13,2.38,2.38,0,0,1-.71-1c-13.36-25.71-26.76-51.38-40.17-77.26,0,0,0-.13-.08-.18.48-.3,1-.66,1.49-1,15.21-9.28,30.46-18.51,45.62-27.82a11.73,11.73,0,0,1,2.24-1.06,9.38,9.38,0,0,1,1.54-.39l1.1-.13,21.49-1.85,4.26-.4q15.09-1.31,30.19-2.59c4.26-.39,8.48-.79,13-1.18h.22a0,0,0,0,1,.05,0Z" transform="translate(-190.65 -222.05)"/><path class="cls-4" d="M704.74,584.62h-.17q-3.11-.33-6.07-.52l-4.79-.4-1.32-.13c-1.36-.13-2.68-.26-4-.35-1.84-.18-3.73-.35-5.58-.49q-10.62-1-21.23-1.89l-28.21-2.5a3.6,3.6,0,0,1-.7-.18,6.1,6.1,0,0,1-.62-.26q-24.19-14.7-48.34-29.45c-.09,0-.13-.13-.31-.3a.18.18,0,0,0,0-.13c.22-.36.36-.8.57-1.19Q603.69,509,623.4,471.11a3.43,3.43,0,0,1,4.13-1.32,1.35,1.35,0,0,1,.57.26l.39.27.09.08c.09.05.13.09.13.18s0,0,0,0a.72.72,0,0,1,.26.27q37.38,56.1,74.8,112.24A14.74,14.74,0,0,1,704.74,584.62Z" transform="translate(-190.65 -222.05)"/><path class="cls-3" d="M544,341.5c-15.47,11.87-30.81,23.65-46.24,35.47-15.29-11.82-30.5-23.6-45.92-35.47,15.42-17.62,30.72-35.11,46.23-52.87C513.39,306.26,528.64,323.79,544,341.5Z" transform="translate(-190.65 -222.05)"/><path class="cls-3" d="M544,597.28c-15.39,17.71-30.59,35.2-45.93,52.87-15.43-17.67-30.76-35.2-46.23-52.87q23-17.73,45.92-35.46C513.22,573.68,528.56,585.42,544,597.28Z" transform="translate(-190.65 -222.05)"/><path class="cls-4" d="M451.56,341.5c-13.05,16.57-25.93,32.92-38.89,49.31l-.05.05c-16.52-10.07-32.92-20-49.4-30.06,0-.05,0-.09,0-.13q4.61-13.92,9.14-27.87t9.1-27.77c0-.09,0-.18.08-.27s.05.05.09.05l.18.39.09.22,0,0,0-.13-.18-.4c23.25,12.22,46.32,24.35,69.57,36.52A2.53,2.53,0,0,0,451.56,341.5Z" transform="translate(-190.65 -222.05)"/><path class="cls-4" d="M632.67,360.75v.05c-16.44,10-32.79,19.95-49.27,30,0,0-.08,0-.13.09-13-16.44-25.88-32.79-38.94-49.36a1.59,1.59,0,0,0,.22-.13q34.82-18.25,69.62-36.56a.15.15,0,0,0,.13-.05v.05l0,0,0,.18v0h0l0,.22,0,0c1.45,4.35,2.86,8.65,4.31,13Q625.66,339.49,632.67,360.75Z" transform="translate(-190.65 -222.05)"/><path class="cls-4" d="M451.56,597.28v.05s-.13,0-.18.08h0c-20.08,10.55-40,21.05-60.12,31.56l-9.49,5a.19.19,0,0,0-.14,0c0-.09,0-.17-.08-.26-.14-.44-.27-.84-.4-1.28q-5.67-17.33-11.38-34.63c-2.15-6.59-4.31-13.18-6.51-19.82v0c16.44-10,32.79-20,49.36-30.06h0l.13.13v0l19.3,24.44v0q9.69,12.33,19.47,24.7Z" transform="translate(-190.65 -222.05)"/><path class="cls-4" d="M632.67,578s0,.13,0,.17q-6.27,19.13-12.49,38.06c-.22.66-.44,1.37-.66,2-.7,2.07-1.36,4.14-2,6.2-1.05,3.12-2.06,6.2-3.07,9.32a2.67,2.67,0,0,0-.09.26.17.17,0,0,0-.13,0c-23.25-12.22-46.37-24.39-69.62-36.57l-.22-.13,38.94-49.35c.05,0,.09,0,.13.09C599.84,558,616.19,568,632.67,578Z" transform="translate(-190.65 -222.05)"/><polygon class="cls-2" points="423.61 82.6 530 34.95 514.01 132.03 442.02 138.71 423.61 82.6"/><polygon class="cls-1" points="261.03 375.03 191.28 411.63 229.91 493.95 307.66 428.56 261.03 375.03"/><polygon class="cls-1" points="353.9 375.37 423.65 411.97 385.02 494.29 307.48 428.36 353.9 375.37"/><line class="cls-5" x1="177.06" y1="247.3" x2="188.22" y2="247.48"/><rect class="cls-6" x="373.04" y="463.85" width="0.5" height="11.16" transform="translate(-292.62 613.24) rotate(-89.1)"/><line class="cls-5" x1="426.07" y1="247.65" x2="437.23" y2="247.63"/><polygon class="cls-6" points="426.07 247.9 426.07 247.4 437.23 247.38 437.23 247.88 426.07 247.9"/></g><g id="text"><path d="M272.1,788.81v-43.7h15a36.28,36.28,0,0,1,7.78.63,14.82,14.82,0,0,1,6.41,3.13,17.79,17.79,0,0,1,5.17,7.46,29.4,29.4,0,0,1,1.71,10.39,30.31,30.31,0,0,1-1.16,8.82,21.31,21.31,0,0,1-3,6.37,15.71,15.71,0,0,1-4,4,16.4,16.4,0,0,1-5.21,2.19,29.63,29.63,0,0,1-7,.75Zm5.78-5.16h9.33a22.88,22.88,0,0,0,6.78-.8,9.76,9.76,0,0,0,3.92-2.27,13.82,13.82,0,0,0,3.21-5.53,27.17,27.17,0,0,0,1.14-8.42q0-6.86-2.25-10.53a11.32,11.32,0,0,0-5.47-4.94,22.78,22.78,0,0,0-7.48-.89h-9.18Z" transform="translate(-190.65 -222.05)"/><path d="M316.56,788.81v-43.7h5.78v43.7Z" transform="translate(-190.65 -222.05)"/><path d="M327.12,788.81l16.78-43.7h6.23L368,788.81h-6.58l-5.1-13.24H338.06l-4.8,13.24Zm12.61-17.95h14.81L350,758.76q-2.09-5.5-3.1-9.06a55.37,55.37,0,0,1-2.35,8.35Z" transform="translate(-190.65 -222.05)"/><path d="M371.84,788.81v-43.7h8.71l10.34,30.94c.95,2.88,1.65,5,2.08,6.47q.75-2.38,2.33-7l10.46-30.4h7.78v43.7H408V752.24l-12.7,36.57h-5.22l-12.63-37.2v37.2Z" transform="translate(-190.65 -222.05)"/><path d="M420.5,767.53q0-10.89,5.84-17t15.08-6.15a20.91,20.91,0,0,1,10.91,2.89,18.88,18.88,0,0,1,7.41,8.06A26.32,26.32,0,0,1,462.28,767a25.73,25.73,0,0,1-2.68,11.89,18.25,18.25,0,0,1-7.6,7.94,21.69,21.69,0,0,1-10.61,2.7,20.65,20.65,0,0,1-11-3,19.19,19.19,0,0,1-7.36-8.14A24.6,24.6,0,0,1,420.5,767.53Zm6,.09q0,7.89,4.25,12.44a14.82,14.82,0,0,0,21.4,0q4.22-4.59,4.21-13a22.38,22.38,0,0,0-1.8-9.31,13.78,13.78,0,0,0-5.28-6.17,14.28,14.28,0,0,0-7.79-2.19,14.81,14.81,0,0,0-10.57,4.21Q426.46,757.76,426.46,767.62Z" transform="translate(-190.65 -222.05)"/><path d="M469.07,788.81v-43.7H475L498,779.42V745.11h5.54v43.7h-5.93l-22.95-34.34v34.34Z" transform="translate(-190.65 -222.05)"/><path d="M512.59,788.81v-43.7h15.06a36.18,36.18,0,0,1,7.77.63,14.82,14.82,0,0,1,6.41,3.13,17.7,17.7,0,0,1,5.17,7.46,29.17,29.17,0,0,1,1.72,10.39,30.29,30.29,0,0,1-1.17,8.82,21.07,21.07,0,0,1-3,6.37,15.69,15.69,0,0,1-4,4,16.46,16.46,0,0,1-5.22,2.19,29.63,29.63,0,0,1-7,.75Zm5.79-5.16h9.33a22.88,22.88,0,0,0,6.78-.8,9.79,9.79,0,0,0,3.91-2.27,13.71,13.71,0,0,0,3.21-5.53,27.15,27.15,0,0,0,1.15-8.42q0-6.86-2.25-10.53a11.37,11.37,0,0,0-5.47-4.94,22.82,22.82,0,0,0-7.48-.89h-9.18Z" transform="translate(-190.65 -222.05)"/><path d="M556.15,788.81v-43.7h19.38a25.91,25.91,0,0,1,8.88,1.18,9.79,9.79,0,0,1,4.86,4.16,12.41,12.41,0,0,1,1.81,6.58,11,11,0,0,1-3,7.84q-3,3.2-9.29,4.06a15.05,15.05,0,0,1,3.48,2.17,30.14,30.14,0,0,1,4.8,5.81l7.6,11.9h-7.27l-5.78-9.09c-1.69-2.63-3.08-4.63-4.18-6a13.1,13.1,0,0,0-2.93-2.93,9,9,0,0,0-2.64-1.16,17.23,17.23,0,0,0-3.22-.21h-6.7v19.41Zm5.79-24.41h12.42a18.78,18.78,0,0,0,6.2-.82A6.57,6.57,0,0,0,584,761a7,7,0,0,0,1.16-3.92,6.5,6.5,0,0,0-2.25-5.09q-2.25-2-7.1-2H561.94Z" transform="translate(-190.65 -222.05)"/><path d="M599.65,788.81v-43.7h31.6v5.16H605.44v13.38h24.17v5.13H605.44v14.87h26.82v5.16Z" transform="translate(-190.65 -222.05)"/><path d="M639.58,788.81v-43.7h5.93l23,34.31V745.11H674v43.7h-5.93l-23-34.34v34.34Z" transform="translate(-190.65 -222.05)"/><path d="M681.14,774.77l5.45-.48a12,12,0,0,0,1.81,5.38,9.83,9.83,0,0,0,4.39,3.4,16.77,16.77,0,0,0,6.71,1.3,16,16,0,0,0,5.84-1,8,8,0,0,0,3.77-2.7,6.26,6.26,0,0,0,1.24-3.74,5.67,5.67,0,0,0-1.2-3.59,8.84,8.84,0,0,0-3.93-2.58,80.23,80.23,0,0,0-7.78-2.13,39.9,39.9,0,0,1-8.43-2.72,11.92,11.92,0,0,1-4.67-4.07,10,10,0,0,1-1.53-5.44,11.06,11.06,0,0,1,1.88-6.19,11.64,11.64,0,0,1,5.48-4.36,20.69,20.69,0,0,1,8-1.49,22,22,0,0,1,8.57,1.56,12.38,12.38,0,0,1,5.7,4.61,13.22,13.22,0,0,1,2.15,6.88l-5.54.42a9,9,0,0,0-3-6.26q-2.58-2.12-7.61-2.12c-3.5,0-6,.65-7.65,1.93a5.75,5.75,0,0,0-2.4,4.63,5,5,0,0,0,1.7,3.88q1.67,1.51,8.72,3.11a56.78,56.78,0,0,1,9.67,2.79,13.28,13.28,0,0,1,5.63,4.45,10.88,10.88,0,0,1,1.82,6.22,11.91,11.91,0,0,1-2,6.57,13.24,13.24,0,0,1-5.73,4.8,20,20,0,0,1-8.42,1.71,25.16,25.16,0,0,1-9.94-1.73,13.84,13.84,0,0,1-6.29-5.2A14.73,14.73,0,0,1,681.14,774.77Z" transform="translate(-190.65 -222.05)"/><path d="M751.88,745.11h5.78v25.25a29.71,29.71,0,0,1-1.49,10.46,12.72,12.72,0,0,1-5.38,6.3q-3.88,2.43-10.21,2.43a20.85,20.85,0,0,1-10-2.12,12.07,12.07,0,0,1-5.57-6.12q-1.68-4-1.67-10.95V745.11h5.78v25.22q0,5.68,1.06,8.39a8.06,8.06,0,0,0,3.63,4.16,12.66,12.66,0,0,0,6.31,1.46q6.38,0,9.09-2.9t2.71-11.11Z" transform="translate(-190.65 -222.05)"/></g></svg>